<svg width="24" height="24" viewBox="0 0 24 24" fill="none" xmlns="http://www.w3.org/2000/svg">
<g id="Outline/Interface/discover">
<path id="Icon" fill-rule="evenodd" clip-rule="evenodd" d="M14.3854 15.4457C11.7351 17.5684 7.85569 17.4013 5.3989 14.9445C2.76287 12.3085 2.76287 8.03464 5.3989 5.3986C8.03494 2.76256 12.3088 2.76256 14.9448 5.3986C17.4016 7.85538 17.5687 11.7348 15.446 14.3851L20.6017 19.5407C20.8946 19.8336 20.8946 20.3085 20.6017 20.6014C20.3088 20.8943 19.8339 20.8943 19.541 20.6014L14.3854 15.4457ZM6.45956 13.8839C4.40931 11.8336 4.40931 8.50951 6.45956 6.45926C8.50982 4.40901 11.8339 4.40901 13.8842 6.45926C15.9329 8.50801 15.9344 11.8287 13.8887 13.8794C13.8872 13.8809 13.8857 13.8823 13.8842 13.8839C13.8827 13.8854 13.8812 13.8869 13.8797 13.8884C11.8291 15.9341 8.50831 15.9326 6.45956 13.8839Z" fill="black"/>
<path id="Icon_2" fill-rule="evenodd" clip-rule="evenodd" d="M10.0747 8.16399C9.36938 8.38141 8.75123 8.85472 8.33466 9.49628L7.41496 10.9127C6.93736 11.6483 7.56167 12.5654 8.37029 12.3161L9.92744 11.836C10.6327 11.6186 11.2509 11.1453 11.6675 10.5038L12.5872 9.08731C13.0648 8.35177 12.4404 7.43467 11.6318 7.68395L10.0747 8.16399ZM10.3898 9.13245C9.94051 8.93118 9.4023 9.15647 9.18764 9.63563C8.97298 10.1148 9.16317 10.6664 9.61243 10.8677C10.0617 11.0689 10.5999 10.8436 10.8146 10.3645C11.0292 9.88531 10.839 9.33371 10.3898 9.13245Z" fill="black"/>
</g>
</svg>
