<svg width="24" height="24" viewBox="0 0 24 24" fill="none" xmlns="http://www.w3.org/2000/svg">
<g id="Outline/Communication/Contacts">
<g id="Icon">
<path d="M10.0009 9.00002C10.0009 7.89545 10.8963 7.00002 12.0009 7.00002C13.1055 7.00002 14.0009 7.89545 14.0009 9.00002C14.0009 10.1046 13.1055 11 12.0009 11C10.8963 11 10.0009 10.1046 10.0009 9.00002Z" fill="black"/>
<path d="M11.0009 12.5C9.34406 12.5 8.00092 13.8432 8.00092 15.5C8.00092 16.0523 8.44863 16.5 9.00092 16.5H15.0009C15.5532 16.5 16.0009 16.0523 16.0009 15.5C16.0009 13.8432 14.6578 12.5 13.0009 12.5H11.0009Z" fill="black"/>
<path fill-rule="evenodd" clip-rule="evenodd" d="M7.54444 2.8827C10.5002 2.45796 13.5016 2.45796 16.4574 2.8827C17.9229 3.09329 19.052 4.28268 19.1861 5.75714L19.3131 7.15287C19.6064 10.3776 19.6064 13.6224 19.3131 16.8472L19.1861 18.2429C19.052 19.7174 17.9229 20.9068 16.4574 21.1173C13.5016 21.5421 10.5002 21.5421 7.54444 21.1173C6.07895 20.9068 4.94986 19.7174 4.81573 18.2429L4.68876 16.8472C4.39541 13.6224 4.39541 10.3776 4.68876 7.15287L4.81573 5.75714C4.94986 4.28268 6.07895 3.09329 7.54444 2.8827ZM16.244 4.36745C13.4298 3.96305 10.5721 3.96305 7.7578 4.36745C6.98001 4.47922 6.38075 5.11048 6.30956 5.89303L6.1826 7.28876C5.89747 10.4231 5.89747 13.5769 6.1826 16.7113L6.30956 18.107C6.38075 18.8896 6.98 19.5208 7.7578 19.6326C10.5721 20.037 13.4298 20.037 16.2441 19.6326C17.0218 19.5208 17.6211 18.8896 17.6923 18.107L17.8193 16.7113C18.1044 13.5769 18.1044 10.4231 17.8193 7.28876L17.6923 5.89303C17.6211 5.11048 17.0218 4.47922 16.244 4.36745Z" fill="black"/>
</g>
</g>
</svg>
