<svg width="24" height="24" viewBox="0 0 24 24" fill="none" xmlns="http://www.w3.org/2000/svg">
<g id="Outline/Interface/discover">
<path id="Icon" fill-rule="evenodd" clip-rule="evenodd" d="M14.3854 15.4458C11.7351 17.5685 7.85569 17.4014 5.3989 14.9446C2.76287 12.3086 2.76287 8.0347 5.3989 5.39866C8.03494 2.76262 12.3088 2.76262 14.9448 5.39866C17.4016 7.85544 17.5687 11.7349 15.446 14.3851L20.6017 19.5408C20.8946 19.8337 20.8946 20.3085 20.6017 20.6014C20.3088 20.8943 19.8339 20.8943 19.541 20.6014L14.3854 15.4458ZM6.45956 13.8839C4.40931 11.8337 4.40931 8.50957 6.45956 6.45932C8.50982 4.40907 11.8339 4.40907 13.8842 6.45932C15.9329 8.50807 15.9344 11.8288 13.8887 13.8794C13.8872 13.8809 13.8857 13.8824 13.8842 13.8839C13.8827 13.8854 13.8812 13.8869 13.8797 13.8884C11.8291 15.9342 8.50831 15.9327 6.45956 13.8839Z" fill="#7E51FD"/>
<path id="Icon_2" fill-rule="evenodd" clip-rule="evenodd" d="M10.0747 8.16392C9.36938 8.38135 8.75123 8.85466 8.33466 9.49621L7.41496 10.9127C6.93736 11.6482 7.56167 12.5653 8.37029 12.316L9.92744 11.836C10.6327 11.6186 11.2509 11.1453 11.6675 10.5037L12.5872 9.08725C13.0648 8.35171 12.4404 7.43461 11.6318 7.68389L10.0747 8.16392ZM10.3898 9.13239C9.94051 8.93112 9.4023 9.1564 9.18764 9.63557C8.97298 10.1147 9.16317 10.6663 9.61243 10.8676C10.0617 11.0689 10.5999 10.8436 10.8146 10.3644C11.0292 9.88525 10.839 9.33365 10.3898 9.13239Z" fill="#7E51FD"/>
</g>
</svg>
