<svg width="24" height="24" viewBox="0 0 24 24" fill="none" xmlns="http://www.w3.org/2000/svg">
<g id="Solid/Communication/Contacts">
<path id="Icon" fill-rule="evenodd" clip-rule="evenodd" d="M16.4574 2.88264C13.5016 2.4579 10.5002 2.4579 7.54444 2.88264C6.07895 3.09323 4.94986 4.28262 4.81573 5.75708L4.68876 7.15281C4.39541 10.3776 4.39541 13.6223 4.68876 16.8471L4.81573 18.2428C4.94986 19.7173 6.07895 20.9067 7.54444 21.1173C10.5002 21.542 13.5016 21.542 16.4574 21.1173C17.9229 20.9067 19.052 19.7173 19.1861 18.2428L19.3131 16.8471C19.6064 13.6223 19.6064 10.3776 19.3131 7.15281L19.1861 5.75708C19.052 4.28262 17.9229 3.09323 16.4574 2.88264ZM10.0009 8.99997C10.0009 7.8954 10.8963 6.99997 12.0009 6.99997C13.1055 6.99997 14.0009 7.8954 14.0009 8.99997C14.0009 10.1045 13.1055 11 12.0009 11C10.8963 11 10.0009 10.1045 10.0009 8.99997ZM8.00092 15.5C8.00092 13.8431 9.34406 12.5 11.0009 12.5H13.0009C14.6578 12.5 16.0009 13.8431 16.0009 15.5C16.0009 16.0523 15.5532 16.5 15.0009 16.5H9.00092C8.44863 16.5 8.00092 16.0523 8.00092 15.5Z" fill="#7E51FD"/>
</g>
</svg>
