<svg width="24" height="24" viewBox="0 0 24 24" fill="none" xmlns="http://www.w3.org/2000/svg">
<g id="Solid/General/Home">
<path id="Icon" d="M13.7967 4.13609C12.8143 3.12147 11.1871 3.12147 10.2047 4.13608L5.40619 9.09182C5.13061 9.37643 4.94542 9.73624 4.87396 10.1259C4.2912 13.3039 4.24819 16.5573 4.74672 19.7496L4.92322 20.8798C4.97897 21.2368 5.28644 21.5 5.64774 21.5H9.0007C9.27685 21.5 9.5007 21.2761 9.5007 21V14H14.5007V21C14.5007 21.2761 14.7246 21.5 15.0007 21.5H18.3536C18.7149 21.5 19.0224 21.2368 19.0781 20.8798L19.2546 19.7496C19.7532 16.5573 19.7102 13.3039 19.1274 10.1259C19.0559 9.73624 18.8708 9.37643 18.5952 9.09182L13.7967 4.13609Z" fill="#7E51FD"/>
</g>
</svg>
