<svg width="20" height="20" viewBox="0 0 20 20" fill="none" xmlns="http://www.w3.org/2000/svg">
<g id="Outline/General/Calendar">
<path id="Outline/General/Calendar_2" fill-rule="evenodd" clip-rule="evenodd" d="M5.83342 2.70801C6.1786 2.70801 6.45842 2.98783 6.45842 3.33301V4.7227C8.81487 4.51284 11.1853 4.51284 13.5418 4.7227V3.33301C13.5418 2.98783 13.8216 2.70801 14.1668 2.70801C14.5119 2.70801 14.7918 2.98783 14.7918 3.33301V4.8467C16.036 5.02263 17.0189 6.00673 17.1853 7.26204L17.2574 7.80616C17.5608 10.0948 17.5346 12.415 17.1796 14.6962C17.0038 15.8263 16.0857 16.6942 14.9476 16.8065L13.9534 16.9045C11.3242 17.1638 8.6759 17.1638 6.0467 16.9045L5.05253 16.8065C3.91441 16.6942 2.99636 15.8263 2.82052 14.6962C2.46555 12.415 2.43935 10.0948 2.74272 7.80617L2.81484 7.26204C2.98124 6.00672 3.9642 5.0226 5.20842 4.8467V3.33301C5.20842 2.98783 5.48825 2.70801 5.83342 2.70801ZM6.2044 6.00201C8.72872 5.75307 11.2714 5.75307 13.7957 6.00201L14.5503 6.07642C15.2726 6.14765 15.8508 6.70679 15.9461 7.42629L16.0183 7.97042C16.0435 8.16051 16.0663 8.35083 16.0867 8.54134H3.91348C3.93388 8.35083 3.95668 8.16051 3.98188 7.97042L4.054 7.42629C4.14937 6.70679 4.72756 6.14765 5.44985 6.07642L6.2044 6.00201ZM3.81412 9.79134C3.7323 11.3647 3.81291 12.944 4.05565 14.504C4.14385 15.0708 4.60434 15.5062 5.1752 15.5625L6.16937 15.6605C8.71699 15.9118 11.2831 15.9118 13.8308 15.6605L14.8249 15.5625C15.3958 15.5062 15.8563 15.0708 15.9445 14.504C16.1872 12.944 16.2678 11.3647 16.186 9.79134H3.81412Z" fill="#9C9C9C"/>
</g>
</svg>
