<svg width="14" height="10" viewBox="0 0 14 10" fill="none" xmlns="http://www.w3.org/2000/svg">
<path fill-rule="evenodd" clip-rule="evenodd" d="M0 4.84615C0 2.1697 2.1697 0 4.84615 0H10.5897C12.4732 0 14 1.52682 14 3.41026C14 5.29369 12.4732 6.82051 10.5897 6.82051H4.74359C3.65318 6.82051 2.76923 5.93656 2.76923 4.84615C2.76923 3.75575 3.65318 2.8718 4.74359 2.8718H10.3846C10.682 2.8718 10.9231 3.11287 10.9231 3.41026C10.9231 3.70764 10.682 3.94872 10.3846 3.94872H4.74359C4.24795 3.94872 3.84615 4.35051 3.84615 4.84615C3.84615 5.34179 4.24795 5.74359 4.74359 5.74359H10.5897C11.8784 5.74359 12.9231 4.69892 12.9231 3.41026C12.9231 2.12159 11.8784 1.07692 10.5897 1.07692H4.84615C2.76447 1.07692 1.07692 2.76447 1.07692 4.84615C1.07692 6.92784 2.76447 8.61539 4.84615 8.61539H10.3846C10.682 8.61539 10.9231 8.85646 10.9231 9.15385C10.9231 9.45123 10.682 9.69231 10.3846 9.69231H4.84615C2.1697 9.69231 0 7.52261 0 4.84615Z" fill="black"/>
</svg>
