<svg width="20" height="20" viewBox="0 0 20 20" fill="none" xmlns="http://www.w3.org/2000/svg">
<g id="Outline/General/Clock">
<g id="Outline/General/Clock_2">
<path d="M10.6247 5.83301C10.6247 5.48783 10.3449 5.20801 9.99967 5.20801C9.6545 5.20801 9.37467 5.48783 9.37467 5.83301V9.99967C9.37467 10.2152 9.48569 10.4155 9.66843 10.5297L12.1684 12.0922C12.4611 12.2751 12.8467 12.1861 13.0297 11.8934C13.2126 11.6007 13.1236 11.2151 12.8309 11.0322L10.6247 9.65327V5.83301Z" fill="#9C9C9C"/>
<path fill-rule="evenodd" clip-rule="evenodd" d="M9.99967 2.70801C5.9726 2.70801 2.70801 5.9726 2.70801 9.99967C2.70801 14.0268 5.9726 17.2913 9.99967 17.2913C14.0268 17.2913 17.2913 14.0268 17.2913 9.99967C17.2913 5.9726 14.0268 2.70801 9.99967 2.70801ZM3.95801 9.99967C3.95801 6.66295 6.66295 3.95801 9.99967 3.95801C13.3364 3.95801 16.0413 6.66295 16.0413 9.99967C16.0413 13.3364 13.3364 16.0413 9.99967 16.0413C6.66295 16.0413 3.95801 13.3364 3.95801 9.99967Z" fill="#9C9C9C"/>
</g>
</g>
</svg>
