<svg width="16" height="16" viewBox="0 0 16 16" fill="none" xmlns="http://www.w3.org/2000/svg">
<g id="Outline/Files/Copy">
<g id="Icon">
<path d="M5.99935 2.16699C3.88226 2.16699 2.16602 3.88323 2.16602 6.00033V10.7382C2.16602 11.0144 2.38987 11.2382 2.66602 11.2382C2.94216 11.2382 3.16602 11.0144 3.16602 10.7382V6.00033C3.16602 4.43552 4.43454 3.16699 5.99935 3.16699H10.6746C10.9507 3.16699 11.1746 2.94313 11.1746 2.66699C11.1746 2.39085 10.9507 2.16699 10.6746 2.16699H5.99935Z" fill="#CFD0D0"/>
<path fill-rule="evenodd" clip-rule="evenodd" d="M12.2677 4.52917C10.1071 4.28768 7.89164 4.28768 5.731 4.52917C5.11548 4.59796 4.62086 5.08236 4.54831 5.70264C4.29206 7.89363 4.29206 10.107 4.54831 12.298C4.62086 12.9183 5.11548 13.4027 5.731 13.4715C7.89164 13.713 10.1071 13.713 12.2677 13.4715C12.8832 13.4027 13.3779 12.9183 13.4504 12.298C13.7067 10.107 13.7067 7.89363 13.4504 5.70264C13.3779 5.08236 12.8832 4.59796 12.2677 4.52917ZM5.84207 5.52298C7.92889 5.28975 10.0698 5.28975 12.1566 5.52298C12.3149 5.54066 12.4393 5.6658 12.4572 5.81881C12.7044 7.93262 12.7044 10.068 12.4572 12.1818C12.4393 12.3348 12.3149 12.46 12.1566 12.4777C10.0698 12.7109 7.92889 12.7109 5.84207 12.4777C5.68384 12.46 5.55944 12.3348 5.54154 12.1818C5.29431 10.068 5.29431 7.93262 5.54154 5.81881C5.55944 5.6658 5.68384 5.54066 5.84207 5.52298Z" fill="#CFD0D0"/>
</g>
</g>
</svg>
