<svg width="16" height="16" viewBox="0 0 16 16" fill="none" xmlns="http://www.w3.org/2000/svg">
<g id="Ic/Outlined">
<path id="Union" fill-rule="evenodd" clip-rule="evenodd" d="M5.22172 7.63331C5.19921 8.15546 5.23176 8.68427 5.32139 9.21484H3.44403C3.34103 8.82738 3.28613 8.42031 3.28613 8.00042C3.28613 7.58058 3.34101 7.17355 3.444 6.78613H5.30738C5.26276 7.06515 5.23403 7.34781 5.22172 7.63331ZM3.83753 10.2148H5.55816C5.79501 10.9905 6.15645 11.7634 6.6488 12.5181C5.4334 12.155 4.42387 11.3148 3.83753 10.2148ZM9.32365 10.2148H6.61053C6.89625 11.0272 7.34238 11.8441 7.96716 12.6431C8.59191 11.8441 9.03798 11.0272 9.32365 10.2148ZM9.59631 9.21484H6.33782C6.23647 8.6942 6.19911 8.17935 6.22079 7.67638C6.23373 7.37624 6.26775 7.07906 6.32219 6.78613H9.61183C9.66756 7.08585 9.70189 7.39001 9.71414 7.69725C9.73394 8.19355 9.69624 8.70137 9.59631 9.21484ZM10.376 10.2148C10.1367 10.9987 9.77019 11.7796 9.26996 12.5418C10.5219 12.1925 11.5638 11.3395 12.1633 10.2148H10.376ZM10.6127 9.21484C10.701 8.69245 10.7339 8.17175 10.7133 7.65739C10.7016 7.3637 10.6725 7.07299 10.6267 6.78613H12.5568C12.6598 7.17355 12.7147 7.58058 12.7147 8.00042C12.7147 8.42031 12.6598 8.82738 12.5568 9.21484H10.6127ZM10.3945 5.78613H12.1634C11.5538 4.64248 10.4867 3.77962 9.20644 3.44181C9.73756 4.16291 10.1391 4.95233 10.3945 5.78613ZM9.3409 5.78613H6.59307C6.88818 4.96393 7.35147 4.19084 7.96691 3.49911C8.58241 4.19083 9.04574 4.96392 9.3409 5.78613ZM5.53946 5.78613H3.83746C4.43369 4.66753 5.46758 3.81755 6.71058 3.46476C6.18786 4.17965 5.79216 4.96117 5.53946 5.78613ZM8.00042 13.7147C11.1563 13.7147 13.7147 11.1563 13.7147 8.00042C13.7147 4.84451 11.1563 2.28613 8.00042 2.28613C4.84451 2.28613 2.28613 4.84451 2.28613 8.00042C2.28613 11.1563 4.84451 13.7147 8.00042 13.7147Z" fill="#9C9C9C"/>
</g>
</svg>
