<svg width="32" height="32" viewBox="0 0 32 32" fill="none" xmlns="http://www.w3.org/2000/svg">
<path fill-rule="evenodd" clip-rule="evenodd" d="M14.3175 22.1696C13.286 22.1696 12.4256 21.3813 12.3355 20.3537C12.1472 18.2053 12.0995 16.0474 12.1927 13.8936C12.0803 13.8861 11.9678 13.8783 11.8554 13.8701L9.86936 13.7253C8.59996 13.6328 7.89035 12.2173 8.57567 11.1448C10.0373 8.85747 12.7162 6.2974 14.9208 4.71375C15.5659 4.25036 16.4348 4.25036 17.0799 4.71375C19.2845 6.2974 21.9634 8.85747 23.425 11.1448C24.1103 12.2173 23.4007 13.6328 22.1313 13.7253L20.1453 13.8701C20.0329 13.8783 19.9204 13.8861 19.808 13.8936C19.9012 16.0474 19.8535 18.2053 19.6652 20.3537C19.5751 21.3813 18.7147 22.1696 17.6832 22.1696H14.3175ZM14.2423 13.0166C14.0907 15.3996 14.119 17.7907 14.327 20.1696H17.6736C17.8817 17.7907 17.91 15.3996 17.7584 13.0166C17.7414 12.7494 17.8322 12.4866 18.0105 12.287C18.1889 12.0873 18.4398 11.9675 18.7072 11.9543C19.1383 11.9331 19.5692 11.9067 19.9999 11.8754L21.4423 11.7702C20.1629 9.88582 18.5609 8.24015 16.7087 6.90968L16.0003 6.40082L15.292 6.90968C13.4398 8.24015 11.8378 9.88582 10.5584 11.7702L12.0008 11.8754C12.4315 11.9067 12.8624 11.9331 13.2935 11.9543C13.5609 11.9675 13.8118 12.0873 13.9901 12.287C14.1685 12.4866 14.2593 12.7494 14.2423 13.0166Z" fill="#7E51FD"/>
<path d="M7.66699 22.6665C7.66699 22.1143 7.21928 21.6665 6.66699 21.6665C6.11471 21.6665 5.66699 22.1143 5.66699 22.6665V25.3332C5.66699 26.6219 6.71166 27.6665 8.00033 27.6665H24.0003C25.289 27.6665 26.3337 26.6219 26.3337 25.3332V22.6665C26.3337 22.1143 25.8859 21.6665 25.3337 21.6665C24.7814 21.6665 24.3337 22.1143 24.3337 22.6665V25.3332C24.3337 25.5173 24.1844 25.6665 24.0003 25.6665H8.00033C7.81623 25.6665 7.66699 25.5173 7.66699 25.3332V22.6665Z" fill="#7E51FD"/>
</svg>
