<svg width="16" height="16" viewBox="0 0 16 16" fill="none" xmlns="http://www.w3.org/2000/svg">
<g id="Outline/Status/Warning">
<g id="Outline/Status/Warning_2">
<path d="M7.99967 8.83301C7.72353 8.83301 7.49967 8.60915 7.49967 8.33301L7.49968 4.99967C7.49968 4.72353 7.72353 4.49967 7.99968 4.49967C8.27582 4.49967 8.49968 4.72353 8.49968 4.99967L8.49967 8.33301C8.49967 8.60915 8.27582 8.83301 7.99967 8.83301Z" fill="#FF0000"/>
<path d="M7.99967 9.99967C7.63149 9.99967 7.33301 10.2982 7.33301 10.6663C7.33301 11.0345 7.63149 11.333 7.99967 11.333C8.36786 11.333 8.66634 11.0345 8.66634 10.6663C8.66634 10.2982 8.36786 9.99967 7.99967 9.99967Z" fill="#FF0000"/>
<path fill-rule="evenodd" clip-rule="evenodd" d="M13.833 7.99967C13.833 11.2213 11.2213 13.833 7.99967 13.833C4.77801 13.833 2.16634 11.2213 2.16634 7.99967C2.16634 4.77801 4.77801 2.16634 7.99968 2.16634C11.2213 2.16634 13.833 4.77801 13.833 7.99967ZM7.99967 12.833C10.6691 12.833 12.833 10.6691 12.833 7.99967C12.833 5.3303 10.6691 3.16634 7.99968 3.16634C5.3303 3.16634 3.16634 5.3303 3.16634 7.99967C3.16634 10.669 5.3303 12.833 7.99967 12.833Z" fill="#FF0000"/>
</g>
</g>
</svg>
