<svg width="19" height="18" viewBox="0 0 19 18" fill="none" xmlns="http://www.w3.org/2000/svg">
<g id="Solid/Brands/Apple">
<g id="Union">
<path d="M9.27766 4.21188C9.29952 3.53356 9.48636 2.53431 10.1366 1.87785C10.7402 1.26849 11.475 0.971501 11.9327 0.83573C12.1094 0.783314 12.2789 0.916546 12.2702 1.10064C12.2395 1.74998 12.0688 2.71852 11.6282 3.23739C11.2129 3.72651 10.5449 4.37512 9.56637 4.48425C9.40621 4.50211 9.27247 4.37295 9.27766 4.21188Z" fill="white"/>
<path d="M10.9532 16.6273C11.4231 16.8073 11.8982 16.9893 12.3281 16.9893C13.2479 16.9893 15.9262 14.8671 16.0227 12.663C16.0277 12.5498 15.96 12.4487 15.8612 12.3934C15.1799 12.0122 14.0674 11.0629 14.0287 9.68192C13.9835 8.07253 14.7916 6.79424 15.4032 6.26547C15.5408 6.14647 15.5881 5.93663 15.4652 5.80244C14.9088 5.19479 13.7894 4.35895 12.768 4.37946C12.025 4.39439 11.3555 4.67118 10.781 4.90869C10.3402 5.09091 9.9554 5.25002 9.63615 5.25002C9.33377 5.25002 8.97076 5.09193 8.55412 4.9105C7.99304 4.66616 7.33469 4.37946 6.59619 4.37946C5.22824 4.37946 2.5254 5.51382 2.52539 9.89297C2.52539 12.2144 4.92191 17.0508 6.94418 16.9893C7.38085 16.9893 7.84753 16.8085 8.31061 16.629C8.76663 16.4524 9.21917 16.277 9.63615 16.277C10.0388 16.277 10.4935 16.4512 10.9532 16.6273Z" fill="white"/>
</g>
</g>
</svg>
