<svg width="11" height="14" viewBox="0 0 11 14" fill="none" xmlns="http://www.w3.org/2000/svg">
<path d="M8.51575 0.488874C6.52274 0.15475 4.47726 0.15475 2.48425 0.488874C1.75613 0.610941 1.17627 1.16992 1.03028 1.8947C0.361462 5.21506 0.324969 8.63178 0.922717 11.9657L1.16608 13.323C1.24112 13.7416 1.75136 13.9088 2.05964 13.616L4.99717 10.8253C5.27895 10.5576 5.72105 10.5576 6.00283 10.8253L8.94036 13.616C9.24864 13.9088 9.75888 13.7416 9.83392 13.323L10.0773 11.9657C10.675 8.63179 10.6385 5.21506 9.96972 1.8947C9.82373 1.16992 9.24387 0.610941 8.51575 0.488874Z" fill="#8000FF"/>
</svg>
