<svg width="20" height="20" viewBox="0 0 20 20" fill="none" xmlns="http://www.w3.org/2000/svg">
<g id="Outline/Status/Bookmark">
<path id="Icon" fill-rule="evenodd" clip-rule="evenodd" d="M13.2207 4.26064C11.1462 3.91286 9.01653 3.91286 6.94203 4.26064C6.55163 4.32609 6.24156 4.62603 6.16374 5.01238C5.45568 8.52757 5.41704 12.1448 6.04986 15.6743L6.1807 16.404L9.11713 13.6144C9.65748 13.1011 10.5053 13.1011 11.0456 13.6144L13.982 16.404L14.1129 15.6743C14.7457 12.1448 14.7071 8.52757 13.999 5.01238C13.9212 4.62603 13.6111 4.32609 13.2207 4.26064ZM6.74363 3.07716C8.94948 2.70735 11.2133 2.70735 13.4191 3.07716C14.2985 3.22458 14.999 3.89963 15.1754 4.77543C15.9132 8.43856 15.9535 12.208 15.2941 15.8861L15.1169 16.8743C14.9681 17.7038 13.9569 18.0353 13.346 17.4549L10.2191 14.4844C10.1419 14.4111 10.0208 14.4111 9.94363 14.4844L6.8168 17.4549C6.20584 18.0353 5.19461 17.7038 5.04589 16.8743L4.8687 15.8861C4.20924 12.208 4.2495 8.43856 4.98737 4.77543C5.16378 3.89963 5.86425 3.22458 6.74363 3.07716Z" fill="black"/>
</g>
</svg>
