<svg width="20" height="14" viewBox="0 0 20 14" fill="none" xmlns="http://www.w3.org/2000/svg">
<path fill-rule="evenodd" clip-rule="evenodd" d="M19.0416 6.99935C19.0416 6.5161 18.6498 6.12435 18.1666 6.12435H1.83325C1.35 6.12435 0.958252 6.5161 0.958252 6.99935C0.958252 7.4826 1.35 7.87435 1.83325 7.87435H18.1666C18.6498 7.87435 19.0416 7.4826 19.0416 6.99935Z" fill="black"/>
<path fill-rule="evenodd" clip-rule="evenodd" d="M19.0416 1.16602C19.0416 0.682766 18.6498 0.291016 18.1666 0.291016H1.83325C1.35 0.291016 0.958252 0.682766 0.958252 1.16602C0.958252 1.64926 1.35 2.04102 1.83325 2.04102H18.1666C18.6498 2.04102 19.0416 1.64926 19.0416 1.16602Z" fill="black"/>
<path fill-rule="evenodd" clip-rule="evenodd" d="M19.0416 12.8327C19.0416 12.3494 18.6498 11.9577 18.1666 11.9577H1.83325C1.35 11.9577 0.958252 12.3494 0.958252 12.8327C0.958252 13.3159 1.35 13.7077 1.83325 13.7077H18.1666C18.6498 13.7077 19.0416 13.3159 19.0416 12.8327Z" fill="black"/>
</svg>
