<svg width="16" height="16" viewBox="0 0 16 16" fill="none" xmlns="http://www.w3.org/2000/svg">
<g id="Outline/General/Calendar">
<path id="Icon" fill-rule="evenodd" clip-rule="evenodd" d="M4.66752 2.16602C4.94366 2.16602 5.16752 2.38987 5.16752 2.66602V3.77777C7.05268 3.60988 8.94903 3.60988 10.8342 3.77777V2.66602C10.8342 2.38987 11.058 2.16602 11.3342 2.16602C11.6103 2.16602 11.8342 2.38987 11.8342 2.66602V3.87697C12.8296 4.01771 13.6159 4.80499 13.749 5.80924L13.8067 6.24454C14.0494 8.07543 14.0284 9.93164 13.7445 11.7566C13.6038 12.6606 12.8694 13.355 11.9589 13.4448L11.1635 13.5232C9.06017 13.7306 6.9415 13.7306 4.83814 13.5232L4.0428 13.4448C3.13231 13.355 2.39787 12.6606 2.2572 11.7566C1.97322 9.93164 1.95226 8.07543 2.19495 6.24454L2.25265 5.80924C2.38577 4.80498 3.17214 4.01769 4.16752 3.87697V2.66602C4.16752 2.38987 4.39138 2.16602 4.66752 2.16602ZM4.9643 4.80122C6.98376 4.60207 9.01791 4.60207 11.0374 4.80122L11.641 4.86075C12.2188 4.91773 12.6814 5.36504 12.7577 5.94064L12.8154 6.37594C12.8355 6.52802 12.8538 6.68028 12.8701 6.83268H3.13156C3.14788 6.68028 3.16612 6.52802 3.18628 6.37595L3.24398 5.94064C3.32028 5.36504 3.78283 4.91773 4.36066 4.86075L4.9643 4.80122ZM3.05208 7.83268C2.98662 9.0914 3.05111 10.3548 3.2453 11.6028C3.31586 12.0563 3.68425 12.4046 4.14094 12.4496L4.93628 12.528C6.97437 12.729 9.0273 12.729 11.0654 12.528L11.8607 12.4496C12.3174 12.4046 12.6858 12.0563 12.7564 11.6028C12.9506 10.3548 13.015 9.0914 12.9496 7.83268H3.05208Z" fill="black"/>
</g>
</svg>
