<svg width="20" height="20" viewBox="0 0 20 20" fill="none" xmlns="http://www.w3.org/2000/svg">
<g id="Outline/Files/Clipboard">
<path id="Icon" fill-rule="evenodd" clip-rule="evenodd" d="M13.0421 3.55242L13.7199 3.63683C15.2843 3.83167 16.4587 5.16133 16.4587 6.73787V15.4791C16.4587 17.0098 15.3184 18.3008 13.7994 18.49C11.2764 18.8042 8.72421 18.8042 6.20122 18.49C4.68221 18.3008 3.54199 17.0098 3.54199 15.4791V6.73787C3.54199 5.16133 4.71632 3.83167 6.28078 3.63683L6.95858 3.55242C7.22706 2.58505 8.11411 1.875 9.16699 1.875H10.8337C11.8865 1.875 12.7736 2.58505 13.0421 3.55242ZM6.87533 4.82244L6.43527 4.87725C5.49659 4.99415 4.79199 5.79195 4.79199 6.73787V15.4791C4.79199 16.3792 5.46248 17.1384 6.3557 17.2496C8.7761 17.551 11.2245 17.551 13.6449 17.2496C14.5382 17.1384 15.2087 16.3792 15.2087 15.4791V6.73787C15.2087 5.79195 14.5041 4.99415 13.5654 4.87725L13.1253 4.82244V5.83333C13.1253 6.17851 12.8455 6.45833 12.5003 6.45833H7.50033C7.15515 6.45833 6.87533 6.17851 6.87533 5.83333V4.82244ZM8.12533 4.16667C8.12533 3.59137 8.5917 3.125 9.16699 3.125H10.8337C11.409 3.125 11.8753 3.59137 11.8753 4.16667V5.20833H8.12533V4.16667Z" fill="black"/>
</g>
</svg>
