<svg width="16" height="16" viewBox="0 0 16 16" fill="none" xmlns="http://www.w3.org/2000/svg">
<g id="Outline/General/Clock">
<g id="Icon">
<path d="M8.49935 4.66602C8.49935 4.38987 8.27549 4.16602 7.99935 4.16602C7.72321 4.16602 7.49935 4.38987 7.49935 4.66602V7.99935C7.49935 8.17174 7.58816 8.33198 7.73435 8.42335L9.73435 9.67335C9.96852 9.8197 10.277 9.74852 10.4233 9.51435C10.5697 9.28018 10.4985 8.9717 10.2643 8.82535L8.49935 7.72222V4.66602Z" fill="black"/>
<path fill-rule="evenodd" clip-rule="evenodd" d="M7.99935 2.16602C4.77769 2.16602 2.16602 4.77769 2.16602 7.99935C2.16602 11.221 4.77769 13.8327 7.99935 13.8327C11.221 13.8327 13.8327 11.221 13.8327 7.99935C13.8327 4.77769 11.221 2.16602 7.99935 2.16602ZM3.16602 7.99935C3.16602 5.32997 5.32997 3.16602 7.99935 3.16602C10.6687 3.16602 12.8327 5.32997 12.8327 7.99935C12.8327 10.6687 10.6687 12.8327 7.99935 12.8327C5.32997 12.8327 3.16602 10.6687 3.16602 7.99935Z" fill="black"/>
</g>
</g>
</svg>
