<svg width="18" height="18" viewBox="0 0 18 18" fill="none" xmlns="http://www.w3.org/2000/svg">
<g id="Outline/Communication/Comment">
<path id="Icon" fill-rule="evenodd" clip-rule="evenodd" d="M3.44435 11.4782C1.75846 7.34006 4.80278 2.8125 9.27114 2.8125H9.51221C12.8539 2.8125 15.5629 5.52151 15.5629 8.86323C15.5629 12.5838 12.5468 15.6 8.82618 15.6H2.96097C2.72228 15.6 2.50957 15.4494 2.43035 15.2242C2.35113 14.999 2.42265 14.7484 2.60875 14.5989L4.08737 13.4115C4.15202 13.3595 4.17489 13.2713 4.14361 13.1945L3.44435 11.4782ZM9.27114 3.9375C5.60175 3.9375 3.10176 7.65551 4.48621 11.0537L5.18546 12.7701C5.40446 13.3076 5.24437 13.9252 4.7918 14.2886L4.55972 14.475H8.82618C11.9255 14.475 14.4379 11.9625 14.4379 8.86323C14.4379 6.14283 12.2326 3.9375 9.51221 3.9375H9.27114Z" fill="black"/>
</g>
</svg>
