<svg width="14" height="15" viewBox="0 0 14 15" fill="none" xmlns="http://www.w3.org/2000/svg">
<path fill-rule="evenodd" clip-rule="evenodd" d="M7.40962 1.82069C7.31605 1.68703 7.16316 1.60742 7 1.60742C6.83684 1.60742 6.68395 1.68703 6.59038 1.82069L3.43215 6.33246L0.853553 3.75387C0.710554 3.61087 0.495495 3.56809 0.308658 3.64548C0.121821 3.72287 0 3.90519 0 4.10742V10.6074C0 11.1378 0.210714 11.6465 0.585786 12.0216C0.960859 12.3967 1.46957 12.6074 2 12.6074H12C12.5304 12.6074 13.0391 12.3967 13.4142 12.0216C13.7893 11.6465 14 11.1378 14 10.6074V4.10742C14 3.90519 13.8782 3.72287 13.6913 3.64548C13.5045 3.56809 13.2894 3.61087 13.1464 3.75387L10.5679 6.33246L7.40962 1.82069Z" fill="black"/>
</svg>
