<svg width="20" height="20" viewBox="0 0 20 20" fill="none" xmlns="http://www.w3.org/2000/svg">
<g id="desktop_windows_FILL1_wght400_GRAD0_opsz24">
<path id="Vector" d="M6.66797 17.5V15.8333H8.33463V14.1667H3.33464C2.8763 14.1667 2.48394 14.0035 2.15755 13.6771C1.83116 13.3507 1.66797 12.9583 1.66797 12.5V4.16667C1.66797 3.70833 1.83116 3.31597 2.15755 2.98958C2.48394 2.66319 2.8763 2.5 3.33464 2.5H16.668C17.1263 2.5 17.5187 2.66319 17.8451 2.98958C18.1714 3.31597 18.3346 3.70833 18.3346 4.16667V12.5C18.3346 12.9583 18.1714 13.3507 17.8451 13.6771C17.5187 14.0035 17.1263 14.1667 16.668 14.1667H11.668V15.8333H13.3346V17.5H6.66797Z" fill="black"/>
</g>
</svg>
