<svg width="70" height="70" viewBox="0 0 70 70" fill="none" xmlns="http://www.w3.org/2000/svg">
<g id="Outline/Files/File">
<path id="Icon" fill-rule="evenodd" clip-rule="evenodd" d="M12.3965 14.5833C12.3965 10.1536 15.9875 6.5625 20.4173 6.5625H43.7123C45.3565 6.5625 46.9001 7.35459 47.8588 8.69035L56.6472 20.9342C57.2699 21.8017 57.6048 22.8427 57.6048 23.9105V55.4167C57.6048 59.8465 54.0138 63.4375 49.584 63.4375H20.4173C15.9875 63.4375 12.3965 59.8465 12.3965 55.4167V14.5833ZM20.4173 10.9375C18.4038 10.9375 16.7715 12.5698 16.7715 14.5833V55.4167C16.7715 57.4302 18.4038 59.0625 20.4173 59.0625H49.584C51.5975 59.0625 53.2298 57.4302 53.2298 55.4167V25.9497H43.7506C42.5425 25.9497 41.5631 24.9703 41.5631 23.7622V10.9375H20.4173Z" fill="black"/>
</g>
</svg>
