<svg width="19" height="18" viewBox="0 0 19 18" fill="none" xmlns="http://www.w3.org/2000/svg">
<path id="Vector" d="M18.3553 7.36143C18.3386 7.26744 18.2562 7.2 18.1607 7.2H9.7C9.58954 7.2 9.5 7.28954 9.5 7.4V10.6C9.5 10.7105 9.58954 10.8 9.7 10.8H14.5864C13.8443 12.8956 11.8503 14.4 9.5 14.4C6.51785 14.4 4.1 11.9822 4.1 9C4.1 6.01785 6.51785 3.6 9.5 3.6C10.8087 3.6 12.0052 4.0694 12.9394 4.84461C13.0209 4.91225 13.1409 4.90905 13.2158 4.83415L15.4816 2.56839C15.5617 2.48833 15.5595 2.35768 15.475 2.28238C13.8853 0.866697 11.7961 0 9.5 0C4.52975 0 0.5 4.02975 0.5 9C0.5 13.9703 4.52975 18 9.5 18C14.4703 18 18.5 13.9703 18.5 9C18.5 8.45301 18.449 7.88715 18.3553 7.36143Z" fill="white"/>
</svg>
