<svg width="19" height="18" viewBox="0 0 19 18" fill="none" xmlns="http://www.w3.org/2000/svg">
<path fill-rule="evenodd" clip-rule="evenodd" d="M18.39 9.20419C18.39 8.56601 18.3327 7.95237 18.2264 7.36328H9.75V10.8446H14.5936C14.385 11.9696 13.7509 12.9228 12.7977 13.561V15.8192H15.7064C17.4082 14.2524 18.39 11.9451 18.39 9.20419Z" fill="#4285F4"/>
<path fill-rule="evenodd" clip-rule="evenodd" d="M9.79273 17.9931C12.2227 17.9931 14.26 17.1872 15.7491 15.8127L12.8405 13.5545C12.0345 14.0945 11.0036 14.4136 9.79273 14.4136C7.44864 14.4136 5.46455 12.8304 4.75682 10.7031H1.75V13.0349C3.23091 15.9763 6.27455 17.9931 9.79273 17.9931Z" fill="#34A853"/>
<path fill-rule="evenodd" clip-rule="evenodd" d="M4.71409 10.7088C4.53409 10.1688 4.43182 9.59203 4.43182 8.99885C4.43182 8.40567 4.53409 7.82885 4.71409 7.28885V4.95703H1.70727C1.09773 6.17203 0.75 7.54658 0.75 8.99885C0.75 10.4511 1.09773 11.8257 1.70727 13.0407L4.71409 10.7088Z" fill="#FBBC05"/>
<path fill-rule="evenodd" clip-rule="evenodd" d="M9.75 3.57955C11.0714 3.57955 12.2577 4.03364 13.1905 4.92545L15.7718 2.34409C14.2132 0.891818 12.1759 0 9.75 0C6.23182 0 3.18818 2.01682 1.70728 4.95818L4.71409 7.29C5.42182 5.16273 7.40591 3.57955 9.75 3.57955Z" fill="#EA4335"/>
</svg>
