<svg width="40" height="40" viewBox="0 0 40 40" fill="none" xmlns="http://www.w3.org/2000/svg">
<g id="-SOYdLKJpzZZzRQ6uteFfgD2EJITLZ9SIy2Lks2Lxx3QwMv2Fu974c5JCkxnPh5CHxFDXaV_m_DO2BYzidGOUf24EwSDSfB6yOu40KoP-5wSxTgnOicbpCcTC5s_jHJ84ST6fD6pmm2WUG9UlVvUpg 1" filter="url(#filter0_d_3323_17481)">
<path id="Vector" d="M20.0051 4C13.3253 4 11.3717 4.00689 10.9919 4.03834C9.62114 4.15239 8.76812 4.36828 7.8389 4.83101C7.12266 5.18683 6.55785 5.59913 6.00042 6.17713C4.9852 7.23128 4.36996 8.52818 4.14718 10.0696C4.03893 10.818 4.00736 10.9707 4.00108 14.7932C3.99866 16.0675 4.00108 17.7443 4.00108 19.9938C4.00108 26.6699 4.00833 28.6221 4.04038 29.0012C4.15117 30.3355 4.36028 31.175 4.8033 32.0932C5.64992 33.8509 7.26695 35.1704 9.17183 35.6628C9.83135 35.8326 10.5598 35.9262 11.4949 35.9704C11.8913 35.9876 15.9299 36 19.9709 36C24.012 36 28.0531 35.9951 28.4394 35.9754C29.5224 35.9244 30.1512 35.8399 30.8465 35.6602C32.7636 35.1656 34.351 33.8656 35.2149 32.0834C35.6492 31.1872 35.8695 30.3158 35.9691 29.0513C35.9909 28.7756 35.9999 24.3796 35.9999 19.9895C35.9999 15.5987 35.99 11.211 35.9685 10.9352C35.8675 9.65018 35.6473 8.78603 35.1988 7.8729C34.8309 7.12522 34.4223 6.56681 33.8292 5.99595C32.7707 4.98473 31.4762 4.36924 29.9336 4.14671C29.1862 4.03858 29.0374 4.00665 25.2128 4H20.0051Z" fill="url(#paint0_radial_3323_17481)"/>
<path id="Vector_2" d="M20.0051 4C13.3253 4 11.3717 4.00689 10.9919 4.03834C9.62114 4.15239 8.76812 4.36828 7.8389 4.83101C7.12266 5.18683 6.55785 5.59913 6.00042 6.17713C4.9852 7.23128 4.36996 8.52818 4.14718 10.0696C4.03893 10.818 4.00736 10.9707 4.00108 14.7932C3.99866 16.0675 4.00108 17.7443 4.00108 19.9938C4.00108 26.6699 4.00833 28.6221 4.04038 29.0012C4.15117 30.3355 4.36028 31.175 4.8033 32.0932C5.64992 33.8509 7.26695 35.1704 9.17183 35.6628C9.83135 35.8326 10.5598 35.9262 11.4949 35.9704C11.8913 35.9876 15.9299 36 19.9709 36C24.012 36 28.0531 35.9951 28.4394 35.9754C29.5224 35.9244 30.1512 35.8399 30.8465 35.6602C32.7636 35.1656 34.351 33.8656 35.2149 32.0834C35.6492 31.1872 35.8695 30.3158 35.9691 29.0513C35.9909 28.7756 35.9999 24.3796 35.9999 19.9895C35.9999 15.5987 35.99 11.211 35.9685 10.9352C35.8675 9.65018 35.6473 8.78603 35.1988 7.8729C34.8309 7.12522 34.4223 6.56681 33.8292 5.99595C32.7707 4.98473 31.4762 4.36924 29.9336 4.14671C29.1862 4.03858 29.0374 4.00665 25.2128 4H20.0051Z" fill="url(#paint1_radial_3323_17481)"/>
<path id="Vector_3" d="M20.0051 4C13.3253 4 11.3717 4.00689 10.9919 4.03834C9.62114 4.15239 8.76812 4.36828 7.8389 4.83101C7.12266 5.18683 6.55785 5.59913 6.00042 6.17713C4.9852 7.23128 4.36996 8.52818 4.14718 10.0696C4.03893 10.818 4.00736 10.9707 4.00108 14.7932C3.99866 16.0675 4.00108 17.7443 4.00108 19.9938C4.00108 26.6699 4.00833 28.6221 4.04038 29.0012C4.15117 30.3355 4.36028 31.175 4.8033 32.0932C5.64992 33.8509 7.26695 35.1704 9.17183 35.6628C9.83135 35.8326 10.5598 35.9262 11.4949 35.9704C11.8913 35.9876 15.9299 36 19.9709 36C24.012 36 28.0531 35.9951 28.4394 35.9754C29.5224 35.9244 30.1512 35.8399 30.8465 35.6602C32.7636 35.1656 34.351 33.8656 35.2149 32.0834C35.6492 31.1872 35.8695 30.3158 35.9691 29.0513C35.9909 28.7756 35.9999 24.3796 35.9999 19.9895C35.9999 15.5987 35.99 11.211 35.9685 10.9352C35.8675 9.65018 35.6473 8.78603 35.1988 7.8729C34.8309 7.12522 34.4223 6.56681 33.8292 5.99595C32.7707 4.98473 31.4762 4.36924 29.9336 4.14671C29.1862 4.03858 29.0374 4.00665 25.2128 4H20.0051Z" fill="url(#paint2_radial_3323_17481)"/>
<path id="Vector_4" d="M20.0051 4C13.3253 4 11.3717 4.00689 10.9919 4.03834C9.62114 4.15239 8.76812 4.36828 7.8389 4.83101C7.12266 5.18683 6.55785 5.59913 6.00042 6.17713C4.9852 7.23128 4.36996 8.52818 4.14718 10.0696C4.03893 10.818 4.00736 10.9707 4.00108 14.7932C3.99866 16.0675 4.00108 17.7443 4.00108 19.9938C4.00108 26.6699 4.00833 28.6221 4.04038 29.0012C4.15117 30.3355 4.36028 31.175 4.8033 32.0932C5.64992 33.8509 7.26695 35.1704 9.17183 35.6628C9.83135 35.8326 10.5598 35.9262 11.4949 35.9704C11.8913 35.9876 15.9299 36 19.9709 36C24.012 36 28.0531 35.9951 28.4394 35.9754C29.5224 35.9244 30.1512 35.8399 30.8465 35.6602C32.7636 35.1656 34.351 33.8656 35.2149 32.0834C35.6492 31.1872 35.8695 30.3158 35.9691 29.0513C35.9909 28.7756 35.9999 24.3796 35.9999 19.9895C35.9999 15.5987 35.99 11.211 35.9685 10.9352C35.8675 9.65018 35.6473 8.78603 35.1988 7.8729C34.8309 7.12522 34.4223 6.56681 33.8292 5.99595C32.7707 4.98473 31.4762 4.36924 29.9336 4.14671C29.1862 4.03858 29.0374 4.00665 25.2128 4H20.0051Z" fill="url(#paint3_radial_3323_17481)"/>
<path id="Vector_5" d="M20.0062 8.10938C16.7751 8.10938 16.3695 8.12353 15.1005 8.18122C13.8338 8.23915 12.9693 8.43955 12.2128 8.73357C11.4303 9.03714 10.7664 9.4434 10.1051 10.1045C9.44326 10.7653 9.03676 11.4286 8.73186 12.2104C8.43688 12.9665 8.23611 13.8307 8.17914 15.0959C8.1223 16.364 8.10742 16.7695 8.10742 19.9984C8.10742 23.2272 8.12194 23.6312 8.17938 24.8993C8.23756 26.165 8.43821 27.029 8.7321 27.7849C9.03628 28.5668 9.44277 29.2302 10.1043 29.8909C10.7654 30.5523 11.4292 30.9595 12.2112 31.2632C12.9683 31.5572 13.8331 31.7576 15.0994 31.8155C16.3686 31.8732 16.7738 31.8874 20.0049 31.8874C23.2363 31.8874 23.6405 31.8732 24.9097 31.8155C26.1763 31.7575 27.0419 31.5572 27.7989 31.2632C28.5812 30.9596 29.244 30.5523 29.9051 29.8909C30.5669 29.2302 30.9734 28.5668 31.2783 27.7852C31.5707 27.029 31.7715 26.1648 31.831 24.8995C31.8881 23.6314 31.9028 23.2272 31.9028 19.9984C31.9028 16.7695 31.8881 16.3643 31.831 15.0961C31.7715 13.8304 31.5707 12.9665 31.2783 12.2106C30.9734 11.4286 30.5669 10.7653 29.9051 10.1045C29.2433 9.44316 28.5815 9.0369 27.7982 8.73357C27.0396 8.43955 26.1745 8.23915 24.908 8.18122C23.6389 8.12353 23.2348 8.10938 20.0026 8.10938H20.0062ZM18.939 10.2519C19.2558 10.2513 19.6092 10.2519 20.0063 10.2519C23.1831 10.2519 23.5596 10.2633 24.814 10.3202C25.974 10.3732 26.6036 10.567 27.0231 10.7296C27.5782 10.9452 27.9742 11.2028 28.3904 11.6188C28.8068 12.0349 29.0645 12.4312 29.2806 12.9861C29.4435 13.4046 29.6375 14.0337 29.6904 15.193C29.7474 16.4462 29.7598 16.8227 29.7598 19.9957C29.7598 23.1685 29.7474 23.545 29.6904 24.7983C29.6373 25.9575 29.4435 26.5866 29.2806 27.0052C29.065 27.56 28.8068 27.9551 28.3904 28.3709C27.9739 28.787 27.5786 29.0446 27.0231 29.2601C26.6041 29.4236 25.974 29.6169 24.814 29.6699C23.5598 29.7267 23.1831 29.7392 20.0063 29.7392C16.8294 29.7392 16.4529 29.7268 15.1985 29.6699C14.0386 29.6163 13.4089 29.4226 12.9894 29.2599C12.4341 29.0445 12.0375 28.7868 11.6211 28.3707C11.2046 27.9546 10.9468 27.5592 10.7307 27.0042C10.5678 26.5856 10.3738 25.9565 10.321 24.7973C10.264 23.544 10.2525 23.1675 10.2525 19.9927C10.2525 16.8179 10.264 16.4433 10.321 15.19C10.3741 14.0308 10.5678 13.4017 10.7307 12.9826C10.9464 12.4278 11.2046 12.0315 11.6211 11.6153C12.0375 11.1993 12.4341 10.9417 12.9894 10.7257C13.4087 10.5623 14.0386 10.369 15.1985 10.3157C16.2961 10.2662 16.7215 10.2513 18.939 10.2489V10.2519ZM26.3573 12.226C25.5691 12.226 24.9295 12.8642 24.9295 13.6522C24.9295 14.4398 25.5691 15.0788 26.3573 15.0788C27.1455 15.0788 27.785 14.4398 27.785 13.6522C27.785 12.8644 27.1455 12.2254 26.3573 12.2254V12.226ZM20.0062 13.8928C16.6319 13.8928 13.8961 16.6266 13.8961 19.9984C13.8961 23.3701 16.6319 26.1026 20.0062 26.1026C23.3805 26.1026 26.1151 23.3701 26.1151 19.9984C26.1151 16.6266 23.3802 13.8928 20.006 13.8928H20.0062ZM20.0062 16.0354C22.1964 16.0354 23.9721 17.8096 23.9721 19.9984C23.9721 22.1869 22.1964 23.9614 20.0062 23.9614C17.8158 23.9614 16.0402 22.1869 16.0402 19.9984C16.0402 17.8095 17.8157 16.0354 20.0062 16.0354Z" fill="white"/>
</g>
<defs>
<filter id="filter0_d_3323_17481" x="0" y="0" width="40" height="40" filterUnits="userSpaceOnUse" color-interpolation-filters="sRGB">
<feFlood flood-opacity="0" result="BackgroundImageFix"/>
<feColorMatrix in="SourceAlpha" type="matrix" values="0 0 0 0 0 0 0 0 0 0 0 0 0 0 0 0 0 0 127 0" result="hardAlpha"/>
<feOffset/>
<feGaussianBlur stdDeviation="2"/>
<feComposite in2="hardAlpha" operator="out"/>
<feColorMatrix type="matrix" values="0 0 0 0 0 0 0 0 0 0 0 0 0 0 0 0 0 0 0.25 0"/>
<feBlend mode="normal" in2="BackgroundImageFix" result="effect1_dropShadow_3323_17481"/>
<feBlend mode="normal" in="SourceGraphic" in2="effect1_dropShadow_3323_17481" result="shape"/>
</filter>
<radialGradient id="paint0_radial_3323_17481" cx="0" cy="0" r="1" gradientUnits="userSpaceOnUse" gradientTransform="translate(34.9666 18.9988) rotate(164.25) scale(20.4462 14.7305)">
<stop stop-color="#FF005F"/>
<stop offset="1" stop-color="#FC01D8"/>
</radialGradient>
<radialGradient id="paint1_radial_3323_17481" cx="0" cy="0" r="1" gradientUnits="userSpaceOnUse" gradientTransform="translate(12.4997 38.4647) rotate(-90) scale(25.543 27.1006)">
<stop stop-color="#FFCC00"/>
<stop offset="0.124161" stop-color="#FFCC00"/>
<stop offset="0.567196" stop-color="#FE4A05"/>
<stop offset="0.694203" stop-color="#FF0F3F"/>
<stop offset="1" stop-color="#FE0657" stop-opacity="0"/>
</radialGradient>
<radialGradient id="paint2_radial_3323_17481" cx="0" cy="0" r="1" gradientUnits="userSpaceOnUse" gradientTransform="translate(20.8085 35.5488) rotate(-59.8703) scale(10.5623 13.7509)">
<stop stop-color="#FFCC00"/>
<stop offset="1" stop-color="#FFCC00" stop-opacity="0"/>
</radialGradient>
<radialGradient id="paint3_radial_3323_17481" cx="0" cy="0" r="1" gradientUnits="userSpaceOnUse" gradientTransform="translate(8.34168 5.30308) rotate(164.274) scale(20.2194 6.88873)">
<stop stop-color="#780CFF"/>
<stop offset="1" stop-color="#820BFF" stop-opacity="0"/>
</radialGradient>
</defs>
</svg>
