<svg width="19" height="18" viewBox="0 0 19 18" fill="none" xmlns="http://www.w3.org/2000/svg">
<g id="LinkedIn svg" clip-path="url(#clip0_3741_4596)">
<path id="Path 2520" d="M16.0621 15.2772H13.3559V11.1167C13.3559 10.1246 13.3378 8.84746 11.9484 8.84746C10.5389 8.84746 10.3232 9.92841 10.3232 11.0445V15.2769H7.61701V6.72128H10.215V7.8905H10.2513C10.5113 7.45409 10.887 7.09509 11.3384 6.85171C11.7898 6.60834 12.3 6.48971 12.8146 6.50847C15.5575 6.50847 16.0632 8.2796 16.0632 10.5837L16.0621 15.2772ZM4.56352 5.55178C4.25292 5.55183 3.94927 5.46147 3.69098 5.29211C3.43269 5.12275 3.23137 4.882 3.11246 4.60031C2.99354 4.31862 2.96238 4.00864 3.02292 3.70956C3.08346 3.41049 3.23299 3.13576 3.45258 2.9201C3.67217 2.70445 3.95197 2.55757 4.25659 2.49803C4.56122 2.43849 4.87698 2.46896 5.16396 2.5856C5.45095 2.70224 5.69625 2.8998 5.86886 3.1533C6.04147 3.40681 6.13363 3.70487 6.13369 4.00979C6.13372 4.21225 6.09313 4.41273 6.01425 4.5998C5.93536 4.78686 5.81972 4.95684 5.67392 5.10003C5.52812 5.24321 5.355 5.3568 5.16448 5.43432C4.97396 5.51183 4.76976 5.55174 4.56352 5.55178ZM5.91662 15.2772H3.20761V6.72128H5.91662V15.2772ZM17.4112 0.00122157H1.84775C1.4945 -0.00269189 1.1541 0.131232 0.901389 0.373565C0.648673 0.615897 0.504311 0.946812 0.5 1.29359V16.6357C0.504164 16.9827 0.648441 17.3138 0.901148 17.5564C1.15385 17.799 1.49432 17.9332 1.84775 17.9295H17.4112C17.7653 17.9339 18.1068 17.8 18.3605 17.5575C18.6142 17.3149 18.7594 16.9834 18.7643 16.6357V1.29249C18.7593 0.945017 18.6139 0.613726 18.3602 0.3714C18.1065 0.129073 17.7652 -0.00446853 17.4112 0.000114168" fill="white"/>
</g>
<defs>
<clipPath id="clip0_3741_4596">
<rect width="18" height="18" fill="white" transform="translate(0.5)"/>
</clipPath>
</defs>
</svg>
