<svg width="16" height="16" viewBox="0 0 16 16" fill="none" xmlns="http://www.w3.org/2000/svg">
<g id="Outline/Navigation/Location">
<g id="Icon">
<path fill-rule="evenodd" clip-rule="evenodd" d="M4.834 6.66732C4.834 4.91842 6.25177 3.50065 8.00067 3.50065C9.74957 3.50065 11.1673 4.91842 11.1673 6.66732C11.1673 8.41622 9.74957 9.83398 8.00067 9.83398C6.25177 9.83398 4.834 8.41622 4.834 6.66732ZM8.00067 4.50065C6.80405 4.50065 5.834 5.4707 5.834 6.66732C5.834 7.86393 6.80405 8.83398 8.00067 8.83398C9.19728 8.83398 10.1673 7.86393 10.1673 6.66732C10.1673 5.4707 9.19728 4.50065 8.00067 4.50065Z" fill="black"/>
<path fill-rule="evenodd" clip-rule="evenodd" d="M2.35024 5.90522C2.58646 3.03948 4.98123 0.833984 7.85669 0.833984H8.14465C11.0201 0.833984 13.4149 3.03948 13.6511 5.90522C13.778 7.44465 13.3025 8.97325 12.3247 10.169L9.12932 14.0769C8.54599 14.7903 7.45535 14.7903 6.87202 14.0769L3.67664 10.169C2.69887 8.97325 2.22335 7.44465 2.35024 5.90522ZM7.85669 1.83398C5.50166 1.83398 3.54033 3.6403 3.34686 5.98737C3.24125 7.2686 3.63702 8.54081 4.45079 9.53603L7.64617 13.4439C7.82939 13.668 8.17195 13.668 8.35517 13.4439L11.5505 9.53603C12.3643 8.54081 12.7601 7.2686 12.6545 5.98737C12.461 3.6403 10.4997 1.83398 8.14465 1.83398H7.85669Z" fill="black"/>
</g>
</g>
</svg>
