<svg width="12" height="12" viewBox="0 0 12 12" fill="none" xmlns="http://www.w3.org/2000/svg">
<g id="Icon">
<path fill-rule="evenodd" clip-rule="evenodd" d="M3.16732 3.17367C3.16732 1.60886 4.43584 0.340332 6.00065 0.340332C7.56546 0.340332 8.83398 1.60886 8.83398 3.17367C8.83398 4.73847 7.56546 6.007 6.00065 6.007C4.43584 6.007 3.16732 4.73847 3.16732 3.17367ZM6.00065 1.34033C4.98813 1.34033 4.16732 2.16114 4.16732 3.17367C4.16732 4.18619 4.98813 5.007 6.00065 5.007C7.01317 5.007 7.83398 4.18619 7.83398 3.17367C7.83398 2.16114 7.01317 1.34033 6.00065 1.34033Z" fill="black"/>
<path fill-rule="evenodd" clip-rule="evenodd" d="M3.33398 8.007C2.50556 8.007 1.83398 8.67857 1.83398 9.507V10.2992C1.83398 10.3112 1.84273 10.3215 1.85463 10.3235C4.60047 10.7718 7.40083 10.7718 10.1467 10.3235C10.1586 10.3215 10.1673 10.3112 10.1673 10.2992V9.507C10.1673 8.67857 9.49574 8.007 8.66732 8.007H8.44007C8.4225 8.007 8.40504 8.00978 8.38834 8.01523L7.81133 8.20364C6.63478 8.58782 5.36652 8.58782 4.18997 8.20364L3.61296 8.01523C3.59626 8.00978 3.5788 8.007 3.56123 8.007H3.33398ZM0.833984 9.507C0.833984 8.12629 1.95327 7.007 3.33398 7.007H3.56123C3.68422 7.007 3.80645 7.02645 3.92337 7.06463L4.50038 7.25304C5.47523 7.57136 6.52607 7.57136 7.50093 7.25304L8.07794 7.06463C8.19485 7.02645 8.31708 7.007 8.44007 7.007H8.66732C10.048 7.007 11.1673 8.12629 11.1673 9.507V10.2992C11.1673 10.8013 10.8034 11.2295 10.3078 11.3104C7.45525 11.7761 4.54605 11.7761 1.6935 11.3104C1.19791 11.2295 0.833984 10.8013 0.833984 10.2992V9.507Z" fill="black"/>
</g>
</svg>
