<svg width="20" height="20" viewBox="0 0 20 20" fill="none" xmlns="http://www.w3.org/2000/svg">
<g id="phone_iphone_FILL1_wght400_GRAD0_opsz24">
<path id="Vector" d="M5.83268 19.1693C5.37435 19.1693 4.98199 19.0061 4.6556 18.6797C4.32921 18.3533 4.16602 17.9609 4.16602 17.5026V2.5026C4.16602 2.04427 4.32921 1.65191 4.6556 1.32552C4.98199 0.999132 5.37435 0.835938 5.83268 0.835938H14.166C14.6243 0.835938 15.0167 0.999132 15.3431 1.32552C15.6695 1.65191 15.8327 2.04427 15.8327 2.5026V17.5026C15.8327 17.9609 15.6695 18.3533 15.3431 18.6797C15.0167 19.0061 14.6243 19.1693 14.166 19.1693H5.83268ZM9.99935 17.0859C10.2355 17.0859 10.4334 17.0061 10.5931 16.8464C10.7528 16.6866 10.8327 16.4887 10.8327 16.2526C10.8327 16.0165 10.7528 15.8186 10.5931 15.6589C10.4334 15.4991 10.2355 15.4193 9.99935 15.4193C9.76324 15.4193 9.56532 15.4991 9.4056 15.6589C9.24588 15.8186 9.16602 16.0165 9.16602 16.2526C9.16602 16.4887 9.24588 16.6866 9.4056 16.8464C9.56532 17.0061 9.76324 17.0859 9.99935 17.0859ZM5.83268 13.3359H14.166V5.0026H5.83268V13.3359Z" fill="white"/>
</g>
</svg>
