<svg width="20" height="20" viewBox="0 0 20 20" fill="none" xmlns="http://www.w3.org/2000/svg">
<g id="phone_iphone_FILL1_wght400_GRAD0_opsz24">
<path id="Vector" d="M5.83464 19.1693C5.3763 19.1693 4.98394 19.0061 4.65755 18.6797C4.33116 18.3533 4.16797 17.9609 4.16797 17.5026V2.5026C4.16797 2.04427 4.33116 1.65191 4.65755 1.32552C4.98394 0.999132 5.3763 0.835938 5.83464 0.835938H14.168C14.6263 0.835938 15.0187 0.999132 15.3451 1.32552C15.6714 1.65191 15.8346 2.04427 15.8346 2.5026V17.5026C15.8346 17.9609 15.6714 18.3533 15.3451 18.6797C15.0187 19.0061 14.6263 19.1693 14.168 19.1693H5.83464ZM10.0013 17.0859C10.2374 17.0859 10.4353 17.0061 10.5951 16.8464C10.7548 16.6866 10.8346 16.4887 10.8346 16.2526C10.8346 16.0165 10.7548 15.8186 10.5951 15.6589C10.4353 15.4991 10.2374 15.4193 10.0013 15.4193C9.76519 15.4193 9.56727 15.4991 9.40755 15.6589C9.24783 15.8186 9.16797 16.0165 9.16797 16.2526C9.16797 16.4887 9.24783 16.6866 9.40755 16.8464C9.56727 17.0061 9.76519 17.0859 10.0013 17.0859ZM5.83464 13.3359H14.168V5.0026H5.83464V13.3359Z" fill="black"/>
</g>
</svg>
