<svg width="16" height="14" viewBox="0 0 16 14" fill="none" xmlns="http://www.w3.org/2000/svg">
<path d="M9.71119 4.3788C9.71119 3.68845 10.2708 3.1288 10.9612 3.1288C11.6515 3.1288 12.2112 3.68845 12.2112 4.3788C12.2112 5.06916 11.6515 5.6288 10.9612 5.6288C10.2708 5.6288 9.71119 5.06916 9.71119 4.3788Z" fill="black"/>
<path fill-rule="evenodd" clip-rule="evenodd" d="M4.1008 0.760932C6.72501 0.532815 9.36406 0.532814 11.9883 0.760932L13.2468 0.870333C14.451 0.975014 15.4266 1.89138 15.6063 3.08671C15.9844 5.60064 15.9844 8.15696 15.6063 10.6709C15.4266 11.8662 14.451 12.7826 13.2468 12.8873L11.9883 12.9967C9.36406 13.2248 6.72501 13.2248 4.1008 12.9967L2.84227 12.8873C1.63805 12.7826 0.662493 11.8662 0.482745 10.6709C0.10471 8.15696 0.10471 5.60064 0.482745 3.08671C0.662493 1.89138 1.63805 0.975014 2.84227 0.870333L4.1008 0.760932ZM11.88 2.00624C9.32784 1.78438 6.76123 1.78438 4.20905 2.00624L2.95053 2.11564C2.32192 2.17028 1.81268 2.64863 1.71885 3.27259C1.50423 4.69977 1.41774 6.14132 1.45936 7.58008L4.68591 4.35353C4.80763 4.23181 4.97416 4.16568 5.14621 4.17074C5.31827 4.1758 5.48063 4.25159 5.59499 4.38024L8.65452 7.82222L10.7635 7.11921C10.9994 7.04059 11.2594 7.10924 11.4257 7.29403L14.3583 10.5525C14.3628 10.5302 14.3668 10.5077 14.3702 10.485C14.7297 8.09431 14.7297 5.66329 14.3702 3.27259C14.2764 2.64863 13.7671 2.17028 13.1385 2.11564L11.88 2.00624ZM13.5613 11.5355L10.7705 8.43452L8.65883 9.1384C8.42164 9.21746 8.16016 9.14756 7.99406 8.9607L5.10109 5.70612L1.56469 9.24252C1.60534 9.65761 1.65673 10.0719 1.71885 10.485C1.81268 11.109 2.32192 11.5873 2.95053 11.642L4.20905 11.7514C6.76123 11.9732 9.32784 11.9732 11.88 11.7514L13.1385 11.642C13.2875 11.629 13.4297 11.5923 13.5613 11.5355Z" fill="black"/>
</svg>
