<svg width="16" height="16" viewBox="0 0 16 16" fill="none" xmlns="http://www.w3.org/2000/svg">
<g id="Outline/Communication/Share-box">
<g id="Icon">
<path fill-rule="evenodd" clip-rule="evenodd" d="M4.83524 10.0339C4.82972 10.2633 4.98107 10.467 5.2023 10.5279C5.42352 10.5889 5.65784 10.4914 5.77058 10.2916L6.37212 9.22521C7.08551 7.96057 8.50564 7.26773 9.94144 7.48382L10.041 7.49881C10.0589 7.95071 10.0843 8.40239 10.1172 8.85366L10.1624 9.47408C10.1992 9.97863 10.7618 10.2607 11.1881 9.98829C12.5865 9.09471 13.8022 7.94332 14.7704 6.59548L15.0745 6.17219C15.1997 5.99787 15.1997 5.76309 15.0745 5.58877L14.7704 5.16548C13.8022 3.81764 12.5865 2.66625 11.1881 1.77267C10.7618 1.50029 10.1992 1.78233 10.1624 2.28688L10.1172 2.9073C10.0907 3.27112 10.069 3.63521 10.0522 3.99946L9.37343 3.99946C6.93029 3.99946 4.93345 5.94886 4.87473 8.3913L4.83524 10.0339ZM10.0903 6.49496C8.4774 6.25222 6.87991 6.90154 5.89039 8.15384C6.06479 6.3784 7.56126 4.99946 9.37343 4.99946L10.5326 4.99946C10.8021 4.99946 11.0231 4.78589 11.0323 4.51656C11.0498 4.00402 11.0772 3.49174 11.1145 2.98001L11.1181 2.93037C12.2138 3.70481 13.174 4.65707 13.9583 5.7489L14.0528 5.88048L13.9583 6.01206C13.174 7.10389 12.2138 8.05615 11.1181 8.83059L11.1145 8.78095C11.0725 8.20503 11.0431 7.62843 11.0261 7.05155C11.019 6.8098 10.8399 6.60779 10.6008 6.57179L10.0903 6.49496Z" fill="black"/>
<path d="M13.096 11.6076C13.1746 10.9354 13.2301 10.2612 13.2625 9.5861C13.266 9.51303 13.2991 9.44456 13.354 9.39614C13.5962 9.1823 13.8309 8.96009 14.0577 8.72992C14.143 8.64334 14.292 8.70388 14.2894 8.82538C14.2686 9.79334 14.2019 10.7606 14.0892 11.7238C13.9315 13.0721 12.8486 14.1288 11.5073 14.2787C9.1962 14.537 6.80731 14.537 4.49626 14.2787C3.15489 14.1288 2.072 13.0721 1.9143 11.7238C1.63794 9.36091 1.63794 6.97388 1.9143 4.61102C2.072 3.26266 3.15489 2.20599 4.49626 2.05607C6.02358 1.88537 7.58489 1.82748 9.13527 1.88241C9.2658 1.88703 9.35566 2.01482 9.33939 2.14441C9.336 2.1714 9.33329 2.1987 9.33128 2.22629L9.29709 2.69551C9.28924 2.80323 9.19728 2.8852 9.08933 2.88141C7.59128 2.82885 6.08254 2.88501 4.60734 3.04988C3.7206 3.14899 3.01027 3.84873 2.90753 4.72718C2.6402 7.01287 2.6402 9.32192 2.90753 11.6076C3.01027 12.4861 3.7206 13.1858 4.60734 13.2849C6.84457 13.5349 9.15895 13.5349 11.3962 13.2849C12.2829 13.1858 12.9932 12.4861 13.096 11.6076Z" fill="black"/>
</g>
</g>
</svg>
