<svg width="24" height="24" viewBox="0 0 24 24" fill="none" xmlns="http://www.w3.org/2000/svg">
<path id="Union" fill-rule="evenodd" clip-rule="evenodd" d="M3.54095 0.108381C2.90954 0.0916589 2.27508 0.118044 1.65331 0.187535C0.898472 0.2719 0.28676 0.866024 0.19738 1.63022C0.0774357 2.65575 0.0774357 3.69176 0.19738 4.71728C0.28676 5.48148 0.898472 6.0756 1.65331 6.15997C2.44169 6.24808 3.25048 6.26689 4.04756 6.21639H11.1252C11.9222 6.26689 12.731 6.24808 13.5194 6.15997C14.2742 6.0756 14.886 5.48148 14.9753 4.71728C15.0953 3.69176 15.0953 2.65574 14.9753 1.63022C14.886 0.866024 14.2742 0.2719 13.5194 0.187535C13.0887 0.139396 12.6519 0.111943 12.2142 0.105176V0.104131H12.1302C12.043 0.10331 11.9558 0.10331 11.8686 0.104131H3.54095V0.108381ZM19.3055 0.187535C20.3078 0.0755092 21.3432 0.0755092 22.3455 0.187535C23.1003 0.2719 23.712 0.866024 23.8014 1.63022C23.9214 2.65574 23.9214 3.69176 23.8014 4.71728C23.712 5.48148 23.1003 6.0756 22.3455 6.15997C21.3432 6.27199 20.3078 6.27199 19.3055 6.15997C18.5506 6.0756 17.9389 5.48148 17.8495 4.71728C17.7296 3.69176 17.7296 2.65575 17.8495 1.63022C17.9389 0.866024 18.5506 0.2719 19.3055 0.187535ZM1.65331 9.01362C2.36023 8.93461 3.08356 8.91133 3.80015 8.94376H11.3726C12.0892 8.91133 12.8125 8.93461 13.5194 9.01362C14.2742 9.09799 14.886 9.69211 14.9753 10.4563C15.0953 11.4818 15.0953 12.5178 14.9753 13.5434C14.886 14.3076 14.2742 14.9017 13.5194 14.9861C12.8133 15.065 12.0908 15.0883 11.3751 15.056H3.79766C3.08188 15.0883 2.35941 15.065 1.65331 14.9861C0.898472 14.9017 0.28676 14.3076 0.19738 13.5434C0.0774357 12.5178 0.0774357 11.4818 0.19738 10.4563C0.28676 9.69211 0.898472 9.09799 1.65331 9.01362ZM22.3455 9.01362C21.3432 8.9016 20.3078 8.9016 19.3055 9.01362C18.5506 9.09799 17.9389 9.69211 17.8495 10.4563C17.7296 11.4818 17.7296 12.5178 17.8495 13.5434C17.9389 14.3076 18.5506 14.9017 19.3055 14.9861C20.3078 15.0981 21.3432 15.0981 22.3455 14.9861C23.1003 14.9017 23.712 14.3076 23.8014 13.5434C23.9214 12.5178 23.9214 11.4818 23.8014 10.4563C23.712 9.69211 23.1003 9.09799 22.3455 9.01362ZM4.04931 17.7834C3.25166 17.7328 2.44226 17.7515 1.65331 17.8397C0.898472 17.9241 0.28676 18.5182 0.19738 19.2824C0.0774357 20.3079 0.0774357 21.3439 0.19738 22.3695C0.28676 23.1337 0.898472 23.7278 1.65331 23.8121C2.27508 23.8816 2.90954 23.908 3.54095 23.8913V23.8957H11.8808C11.9598 23.8963 12.0389 23.8963 12.118 23.8957H12.2142V23.8945C12.6519 23.8877 13.0887 23.8603 13.5194 23.8121C14.2742 23.7278 14.886 23.1337 14.9753 22.3695C15.0953 21.3439 15.0953 20.3079 14.9753 19.2824C14.886 18.5182 14.2742 17.9241 13.5194 17.8397C12.7305 17.7515 11.9211 17.7328 11.1234 17.7834H4.04931ZM19.3055 17.8397C20.3078 17.7277 21.3432 17.7277 22.3455 17.8397C23.1003 17.9241 23.712 18.5182 23.8014 19.2824C23.9214 20.3079 23.9214 21.3439 23.8014 22.3695C23.712 23.1337 23.1003 23.7278 22.3455 23.8121C21.3432 23.9242 20.3078 23.9242 19.3055 23.8121C18.5506 23.7278 17.9389 23.1337 17.8495 22.3695C17.7296 21.3439 17.7296 20.3079 17.8495 19.2824C17.9389 18.5182 18.5506 17.9241 19.3055 17.8397Z" fill="#545454"/>
</svg>
