<svg width="32" height="32" viewBox="0 0 32 32" fill="none" xmlns="http://www.w3.org/2000/svg">
<g id="Solid/Interface/Layout">
<g id="Icon">
<path d="M12.0912 4.30473C10.2732 4.10155 8.39447 4.10155 6.57648 4.30473C5.40691 4.43545 4.46117 5.35646 4.32325 6.5357C4.10579 8.39493 4.10579 10.2732 4.32325 12.1324C4.46117 13.3116 5.40691 14.2326 6.57648 14.3634C8.39447 14.5665 10.2732 14.5665 12.0912 14.3634C13.2608 14.2326 14.2065 13.3116 14.3444 12.1324C14.5619 10.2732 14.5619 8.39493 14.3444 6.5357C14.2065 5.35646 13.2608 4.43545 12.0912 4.30473Z" fill="#D9D9D9"/>
<path d="M12.0912 17.6381C10.2732 17.4349 8.39447 17.4349 6.57648 17.6381C5.40691 17.7688 4.46117 18.6898 4.32325 19.869C4.10579 21.7283 4.10579 23.6065 4.32325 25.4657C4.46117 26.645 5.40691 27.566 6.57648 27.6967C8.39447 27.8999 10.2732 27.8999 12.0912 27.6967C13.2608 27.566 14.2065 26.645 14.3444 25.4657C14.5619 23.6065 14.5619 21.7283 14.3444 19.869C14.2065 18.6898 13.2608 17.7688 12.0912 17.6381Z" fill="#D9D9D9"/>
<path d="M25.4245 4.30473C23.6066 4.10155 21.7278 4.10155 19.9098 4.30473C18.7403 4.43545 17.7945 5.35646 17.6566 6.5357C17.4391 8.39493 17.4391 10.2732 17.6566 12.1324C17.7945 13.3116 18.7403 14.2326 19.9098 14.3634C21.7278 14.5665 23.6066 14.5665 25.4245 14.3634C26.5941 14.2326 27.5399 13.3116 27.6778 12.1324C27.8952 10.2732 27.8952 8.39493 27.6778 6.5357C27.5399 5.35646 26.5941 4.43545 25.4245 4.30473Z" fill="#D9D9D9"/>
<path d="M25.4245 17.6381C23.6066 17.4349 21.7278 17.4349 19.9098 17.6381C18.7403 17.7688 17.7945 18.6898 17.6566 19.869C17.4391 21.7283 17.4391 23.6065 17.6566 25.4657C17.7945 26.645 18.7403 27.566 19.9098 27.6967C21.7278 27.8999 23.6066 27.8999 25.4245 27.6967C26.5941 27.566 27.5399 26.645 27.6778 25.4657C27.8952 23.6065 27.8952 21.7283 27.6778 19.869C27.5399 18.6898 26.5941 17.7688 25.4245 17.6381Z" fill="#D9D9D9"/>
</g>
</g>
</svg>
