<svg width="16" height="16" viewBox="0 0 16 16" fill="none" xmlns="http://www.w3.org/2000/svg">
<g id="Solid/Status/Warning">
<path id="Icon" fill-rule="evenodd" clip-rule="evenodd" d="M13.833 8.00016C13.833 11.2218 11.2213 13.8335 7.99967 13.8335C4.77801 13.8335 2.16634 11.2218 2.16634 8.00016C2.16634 4.7785 4.77802 2.16683 7.99968 2.16683C11.2213 2.16683 13.833 4.7785 13.833 8.00016ZM7.33301 10.6668C7.33301 10.2986 7.63149 10.0002 7.99968 10.0002C8.36786 10.0002 8.66634 10.2986 8.66634 10.6668C8.66634 11.035 8.36786 11.3335 7.99968 11.3335C7.63149 11.3335 7.33301 11.035 7.33301 10.6668ZM7.99968 8.8335C7.72353 8.8335 7.49968 8.60964 7.49968 8.3335L7.49968 5.00016C7.49968 4.72402 7.72353 4.50016 7.99968 4.50016C8.27582 4.50016 8.49968 4.72402 8.49968 5.00016L8.49968 8.3335C8.49968 8.60964 8.27582 8.8335 7.99968 8.8335Z" fill="#F52D2D"/>
</g>
</svg>
