<svg width="15" height="19" viewBox="0 0 15 19" fill="none" xmlns="http://www.w3.org/2000/svg">
<path fill-rule="evenodd" clip-rule="evenodd" d="M11.023 1.82605C8.42984 1.39132 5.76773 1.39132 3.17461 1.82605C2.68661 1.90786 2.29902 2.28279 2.20174 2.76572C1.31667 7.1597 1.26837 11.6812 2.0594 16.0931L2.22295 17.0053L5.89348 13.5183C6.56892 12.8766 7.62866 12.8766 8.3041 13.5183L11.9746 17.0053L12.1382 16.0931C12.9292 11.6812 12.8809 7.1597 11.9958 2.76572C11.8986 2.28279 11.511 1.90786 11.023 1.82605ZM2.9266 0.346692C5.68392 -0.115564 8.51366 -0.115564 11.271 0.346692C12.3702 0.530972 13.2458 1.37479 13.4663 2.46953C14.3886 7.04844 14.439 11.7602 13.6146 16.3578L13.3931 17.5931C13.2072 18.63 11.9432 19.0444 11.1795 18.3189L7.27098 14.6058C7.17448 14.5141 7.02309 14.5141 6.9266 14.6058L3.01807 18.3189C2.25437 19.0444 0.990329 18.63 0.804428 17.5931L0.582943 16.3578C-0.241375 11.7602 -0.19105 7.04844 0.731278 2.46953C0.951791 1.37479 1.82739 0.530972 2.9266 0.346692Z" fill="black"/>
</svg>
