<svg width="20" height="18" viewBox="0 0 20 18" fill="none" xmlns="http://www.w3.org/2000/svg">
<path fill-rule="evenodd" clip-rule="evenodd" d="M5.24985 3.63006V2.46028C5.24985 1.59404 5.88359 0.858142 6.74025 0.729644L7.96017 0.546657C9.31239 0.343823 10.6873 0.343823 12.0395 0.546656L13.2594 0.729643C14.1161 0.858142 14.7498 1.59404 14.7498 2.46028V3.63006L16.4639 3.76842C17.7763 3.87435 18.8468 4.86249 19.0573 6.16221C19.5225 9.03475 19.5225 11.9634 19.0573 14.836C18.8468 16.1357 17.7763 17.1238 16.4639 17.2298L14.592 17.3809C11.5355 17.6276 8.46416 17.6276 5.40772 17.3809L3.5358 17.2298C2.22342 17.1238 1.15288 16.1357 0.942397 14.836C0.477209 11.9634 0.477209 9.03475 0.942397 6.16221C1.15288 4.86249 2.22342 3.87435 3.5358 3.76842L5.24985 3.63006ZM8.18268 2.03006C9.38738 1.84935 10.6123 1.84935 11.817 2.03006L13.0369 2.21305C13.1593 2.23141 13.2498 2.33653 13.2498 2.46028V3.52489C11.0849 3.40141 8.91475 3.40141 6.74985 3.52489V2.46028C6.74985 2.33653 6.84038 2.23141 6.96276 2.21305L8.18268 2.03006ZM5.52841 5.11245C8.50452 4.87222 11.4952 4.87222 14.4713 5.11245L16.3432 5.26355C16.9673 5.31393 17.4765 5.78388 17.5766 6.402C17.6389 6.78693 17.6924 7.17293 17.7371 7.55969C12.8595 9.96148 7.14023 9.96148 2.26262 7.55969C2.30727 7.17293 2.36077 6.78693 2.42311 6.40201C2.52321 5.78388 3.03234 5.31393 3.65649 5.26355L5.52841 5.11245ZM2.12874 9.15574C7.12814 11.4295 12.8715 11.4295 17.8709 9.15574C17.9663 10.9719 17.8681 12.7957 17.5766 14.5962C17.4765 15.2143 16.9673 15.6842 16.3432 15.7346L14.4713 15.8857C11.4952 16.1259 8.50452 16.1259 5.52841 15.8857L3.65649 15.7346C3.03234 15.6842 2.52321 15.2143 2.42311 14.5962C2.13153 12.7957 2.03341 10.9719 2.12874 9.15574Z" fill="black"/>
</svg>
