<svg width="124" height="24" viewBox="0 0 124 24" fill="none" xmlns="http://www.w3.org/2000/svg">
<path opacity="0.5" d="M14.1346 17.7308C18.4785 17.7308 22 14.2094 22 9.86542C22 5.52147 18.4785 2 14.1346 2C9.79063 2 6.26917 5.52147 6.26917 9.86542C6.26917 14.2094 9.79063 17.7308 14.1346 17.7308Z" fill="#D8CBFE"/>
<path d="M14.5793 13.5474C14.5793 10.0278 11.7661 7.16992 8.28966 7.16992C4.81858 7.16992 2 10.0224 2 13.5474C2 17.0669 4.81323 19.9248 8.28966 19.9248C9.20957 19.9248 10.0814 19.7188 10.8729 19.3608L13.8787 22.0019V16.4758C14.3279 15.5973 14.5847 14.6049 14.5847 13.5528L14.5793 13.5474Z" fill="#7E51FD"/>
<path d="M102.507 6.24219C104.3 6.24219 105.714 6.73578 106.753 7.72074C107.788 8.7057 108.306 10.1932 108.306 12.1787V14.1732H100.73C100.759 14.8455 101 15.3994 101.452 15.8372C101.904 16.2772 102.558 16.496 103.42 16.496C104.189 16.496 104.894 16.4179 105.532 16.2615C106.17 16.1052 107.626 15.8439 108.309 15.4999L108.027 18.2359C107.09 19.0064 106.268 19.2968 105.563 19.4531C104.858 19.6095 103.974 19.6877 102.908 19.6877C101.663 19.6877 100.557 19.4554 99.5862 18.993C98.6156 18.533 97.8489 17.8115 97.286 16.8355C96.7231 15.8595 96.4417 14.5954 96.4417 13.0476C96.4417 11.4998 96.6987 10.22 97.2084 9.2127C97.7203 8.20317 98.4295 7.45719 99.3403 6.97253C100.251 6.48787 101.308 6.24665 102.507 6.24665V6.24219ZM102.662 9.29087C102.159 9.29087 101.74 9.45615 101.408 9.78447C101.075 10.1128 100.878 10.6376 100.818 11.3568H104.462C104.448 10.7784 104.289 10.2892 103.985 9.88944C103.682 9.48965 103.241 9.29087 102.664 9.29087H102.662Z" fill="#7E51FD"/>
<path d="M35.6598 6.2832C36.4332 6.2832 37.0559 6.42838 37.528 6.7165C38 7.00685 38.3834 7.36197 38.6759 7.78633V6.47751H42.3324V17.149C42.3324 18.6521 41.8493 19.99 40.8853 20.7739C39.9191 21.5556 38.4365 21.9487 36.4377 21.9487C35.5446 21.9487 34.7601 21.9041 34.0798 21.8147C33.4016 21.7254 32.369 21.5646 31.744 21.3345V18.6901H36.2183C37.7496 18.6901 38.6759 17.5354 38.6759 16.4834V16.6108V15.2863C38.41 15.7084 37.887 16.0725 37.4282 16.374C36.9695 16.6755 36.3579 16.8274 35.6 16.8274C34.4277 16.8274 33.4748 16.3584 32.7435 15.4203C32.0122 14.4823 31.6421 13.6112 31.6421 11.8133C31.6421 10.0153 32.0144 8.64398 32.7612 7.69922C33.508 6.75446 34.4742 6.2832 35.6598 6.2832ZM37.098 9.13311C36.0454 9.13311 35.5202 10.0444 35.5202 11.8691C35.5202 12.7938 35.6532 13.4593 35.9191 13.8636C36.185 14.2678 36.5994 14.4711 37.1579 14.4711C37.7717 14.4711 38.1994 14.2812 38.4476 13.9038C38.6936 13.5241 38.8177 12.9568 38.8177 12.1974V11.7552C38.8177 10.9199 38.7003 10.2744 38.4676 9.81878C38.2349 9.36315 37.7784 9.13311 37.098 9.13311Z" fill="#7E51FD"/>
<path d="M47.8572 19.6863H43.4427V2.00391H47.8572V19.6863Z" fill="#7E51FD"/>
<path d="M53.3788 19.684H48.9644V6.2832H53.3788V19.684Z" fill="#7E51FD"/>
<path d="M51.8674 5.05092H50.4779C49.6425 5.05092 48.9644 4.36747 48.9644 3.52546C48.9644 2.68344 49.6425 2 50.4779 2H51.8674C52.7029 2 53.381 2.68344 53.381 3.52546C53.381 4.36747 52.7029 5.05092 51.8674 5.05092Z" fill="#7E51FD"/>
<path d="M68.5839 6.2832C69.9069 6.2832 70.9152 6.66736 71.6111 7.43791C72.3069 8.20845 72.6549 9.43239 72.6549 11.1164V19.6862H68.6659V12.5213C68.6659 11.5207 68.5485 10.8283 68.3114 10.4375C68.0742 10.0488 67.7263 9.85452 67.2676 9.85452C66.6272 9.85452 66.1817 10.1761 65.9313 10.8171C65.6809 11.4604 65.5546 12.3694 65.5546 13.542V19.684H61.5657V12.519C61.5657 11.5676 61.4549 10.8841 61.231 10.471C61.0072 10.0578 60.6748 9.85228 60.2294 9.85228C59.5468 9.85228 59.0859 10.2052 58.8421 10.9109C58.5984 11.6167 58.4765 12.6195 58.4765 13.9217V19.6818H54.4875V6.28544H58.1839V8.14145C58.4898 7.60095 58.9308 7.15649 59.5114 6.80807C60.0875 6.45965 60.8011 6.28544 61.6521 6.28544C62.5031 6.28544 63.2011 6.44848 63.7507 6.77457C64.3003 7.10065 64.7501 7.54734 65.0981 8.11911C65.4593 7.53171 66.0554 7.08055 66.6316 6.76116C67.21 6.44401 67.8593 6.28544 68.5839 6.28544V6.2832Z" fill="#7E51FD"/>
<path d="M80.7759 6.09375C82.0473 6.09375 83.0417 6.57395 83.7638 7.5321C84.4812 8.49026 84.8411 9.87054 84.8411 11.6707C84.8411 12.8969 84.6588 13.931 84.2918 14.773C83.9248 15.615 83.4276 16.2471 82.7978 16.6714C82.1681 17.0958 81.4507 17.308 80.6504 17.308C79.8502 17.308 79.2228 17.1717 78.7729 16.897C78.3231 16.6245 77.9893 16.3431 77.7407 16.055V17.853L77.7454 22.0005H73.962L73.7607 6.29253H77.7454V7.66164C78.0224 7.24399 78.3775 6.87993 78.8534 6.56725C79.3293 6.25456 79.9686 6.09822 80.7712 6.09822L80.7759 6.09375ZM79.282 9.02853C78.6995 9.02853 78.2994 9.22284 78.0769 9.61593C77.8567 10.0068 77.7383 10.5875 77.7241 11.358V11.6506C77.7241 12.5105 77.8354 13.1671 78.0556 13.6161C78.2757 14.065 78.6901 14.2906 79.3009 14.2906C79.7981 14.2906 80.1745 14.0873 80.4326 13.6853C80.6883 13.281 80.8162 12.5954 80.8162 11.6305C80.8162 10.6657 80.6859 10.0068 80.4231 9.61593C80.1603 9.22507 79.7815 9.02853 79.2843 9.02853H79.282Z" fill="#7E51FD"/>
<path d="M95.3347 15.4762C95.3347 16.2869 95.1663 17.0128 94.8273 17.6515C94.4904 18.2903 93.9497 18.7906 93.2095 19.148C92.4694 19.5053 91.4965 19.6862 90.2865 19.6862C89.4378 19.6862 88.6799 19.6349 88.0106 19.5344C87.3414 19.4316 86.6633 19.2418 85.9719 18.9604V15.3823C86.7342 15.7576 87.5032 16.0256 88.281 16.1886C89.0566 16.3517 89.6683 16.4343 90.1137 16.4343C91.0068 16.4343 91.45 16.2154 91.45 15.7799C91.45 15.5923 91.3791 15.4292 91.235 15.2885C91.091 15.1478 90.8339 14.9937 90.4683 14.8195C90.1004 14.6475 89.5796 14.4153 88.9037 14.1182C87.9109 13.6804 87.1708 13.1667 86.6832 12.5749C86.1957 11.983 85.9497 11.1566 85.9497 10.0957C85.9497 8.83159 86.3996 7.88236 87.2971 7.24136C88.1946 6.60259 89.3868 6.2832 90.8672 6.2832C91.6583 6.2832 92.3985 6.37701 93.0877 6.56462C93.7791 6.75223 94.4971 7.02471 95.2461 7.3843L94.1248 10.261C93.5353 9.96619 92.9392 9.73168 92.3342 9.5597C91.7314 9.38772 91.2483 9.30285 90.8893 9.30285C90.2112 9.30285 89.8744 9.48153 89.8744 9.84111C89.8744 10.0131 89.9364 10.156 90.0583 10.2744C90.1802 10.3905 90.4151 10.5313 90.7586 10.6943C91.1043 10.8573 91.6073 11.0807 92.2677 11.3599C92.9591 11.6726 93.5287 11.9986 93.9829 12.3426C94.435 12.6866 94.7741 13.1087 94.9957 13.6067C95.2195 14.107 95.3303 14.7279 95.3303 15.4784L95.3347 15.4762Z" fill="#7E51FD"/>
</svg>
