<svg width="19" height="22" viewBox="0 0 19 22" fill="none" xmlns="http://www.w3.org/2000/svg">
<path d="M16.9548 1.04389C17.2477 1.33678 17.2477 1.81166 16.9548 2.10455L16.4043 2.655C19.6933 6.48608 19.5233 12.2639 15.8941 15.8931C14.1811 17.6061 11.9895 18.5484 9.74982 18.7201V20.2488H11.4998C11.914 20.2488 12.2498 20.5846 12.2498 20.9988C12.2498 21.4131 11.914 21.7488 11.4998 21.7488H6.49982C6.0856 21.7488 5.74982 21.4131 5.74982 20.9988C5.74982 20.5846 6.0856 20.2488 6.49982 20.2488H8.24982V18.7201C6.24355 18.5662 4.27576 17.7939 2.65597 16.4033L2.10553 16.9538C1.81263 17.2467 1.33776 17.2467 1.04487 16.9538C0.751972 16.6609 0.751972 16.186 1.04487 15.8931L1.75197 15.186C2.24741 14.6906 3.01727 14.7159 3.49959 15.1482C5.06156 16.548 7.02903 17.2482 8.99677 17.2488L8.99982 17.2488L9.00306 17.2488C11.1133 17.248 13.2234 16.4425 14.8334 14.8325C17.9464 11.7196 18.0516 6.73737 15.1491 3.49861C14.7169 3.0163 14.6916 2.24643 15.187 1.751L15.8941 1.04389C16.187 0.750995 16.6619 0.750995 16.9548 1.04389Z" fill="black"/>
<path fill-rule="evenodd" clip-rule="evenodd" d="M2.24982 8.99884C2.24982 5.27092 5.27189 2.24884 8.99982 2.24884C12.7277 2.24884 15.7498 5.27092 15.7498 8.99884C15.7498 12.7268 12.7277 15.7488 8.99982 15.7488C5.27189 15.7488 2.24982 12.7268 2.24982 8.99884ZM8.99982 3.74884C6.10032 3.74884 3.74982 6.09935 3.74982 8.99884C3.74982 9.33367 3.78116 9.66118 3.84108 9.9786C4.25239 9.53005 4.84327 9.24884 5.49982 9.24884C6.74246 9.24884 7.74982 10.2562 7.74982 11.4988C7.74982 12.4212 7.19483 13.2139 6.40058 13.5613C7.16693 13.9988 8.05418 14.2488 8.99982 14.2488C11.5432 14.2488 13.6641 12.4403 14.1468 10.0391C13.4782 11.0682 12.3185 11.7488 10.9998 11.7488C8.92875 11.7488 7.24982 10.0699 7.24982 7.99884C7.24982 5.92777 8.92875 4.24884 10.9998 4.24884C11.0863 4.24884 11.1721 4.25177 11.2571 4.25753C10.5733 3.9314 9.80788 3.74884 8.99982 3.74884ZM8.74982 7.99884C8.74982 6.7562 9.75718 5.74884 10.9998 5.74884C12.2425 5.74884 13.2498 6.7562 13.2498 7.99884C13.2498 9.24148 12.2425 10.2488 10.9998 10.2488C9.75718 10.2488 8.74982 9.24148 8.74982 7.99884ZM5.49982 10.7488C5.0856 10.7488 4.74982 11.0846 4.74982 11.4988C4.74982 11.9131 5.0856 12.2488 5.49982 12.2488C5.91403 12.2488 6.24982 11.9131 6.24982 11.4988C6.24982 11.0846 5.91403 10.7488 5.49982 10.7488Z" fill="black"/>
</svg>
