<svg width="16" height="20" viewBox="0 0 16 20" fill="none" xmlns="http://www.w3.org/2000/svg">
<path d="M5.99994 6.99837C5.99994 5.89381 6.89537 4.99837 7.99994 4.99837C9.10451 4.99837 9.99994 5.89381 9.99994 6.99837C9.99994 8.10294 9.10451 8.99837 7.99994 8.99837C6.89537 8.99837 5.99994 8.10294 5.99994 6.99837Z" fill="black"/>
<path d="M6.99994 10.4984C5.34308 10.4984 3.99994 11.8415 3.99994 13.4984C3.99994 14.0507 4.44765 14.4984 4.99994 14.4984H10.9999C11.5522 14.4984 11.9999 14.0507 11.9999 13.4984C11.9999 11.8415 10.6568 10.4984 8.99994 10.4984H6.99994Z" fill="black"/>
<path fill-rule="evenodd" clip-rule="evenodd" d="M3.54347 0.881056C6.49927 0.456315 9.50062 0.456315 12.4564 0.881056C13.9219 1.09164 15.051 2.28103 15.1851 3.75549L15.3121 5.15122C15.6055 8.376 15.6055 11.6208 15.3121 14.8455L15.1851 16.2413C15.051 17.7157 13.9219 18.9051 12.4564 19.1157C9.50062 19.5404 6.49927 19.5404 3.54347 19.1157C2.07798 18.9051 0.948883 17.7157 0.814755 16.2413L0.687788 14.8455C0.394436 11.6208 0.394435 8.376 0.687787 5.15122L0.814754 3.75549C0.948883 2.28104 2.07798 1.09164 3.54347 0.881056ZM12.2431 2.36581C9.42878 1.9614 6.57112 1.9614 3.75682 2.36581C2.97903 2.47757 2.37977 3.10883 2.30859 3.89138L2.18162 5.28712C1.89649 8.42148 1.89649 11.5753 2.18162 14.7096L2.30859 16.1054C2.37977 16.8879 2.97903 17.5192 3.75682 17.6309C6.57112 18.0354 9.42878 18.0354 12.2431 17.6309C13.0209 17.5192 13.6201 16.8879 13.6913 16.1054L13.8183 14.7096C14.1034 11.5753 14.1034 8.42148 13.8183 5.28711L13.6913 3.89138C13.6201 3.10883 13.0209 2.47757 12.2431 2.36581Z" fill="black"/>
</svg>
