<svg width="14" height="14" viewBox="0 0 14 14" fill="none" xmlns="http://www.w3.org/2000/svg">
<g clip-path="url(#clip0_2187_53979)">
<path d="M7 8C8.38071 8 9.5 6.88071 9.5 5.5C9.5 4.11929 8.38071 3 7 3C5.61929 3 4.5 4.11929 4.5 5.5C4.5 6.88071 5.61929 8 7 8Z" stroke="black" stroke-linecap="round" stroke-linejoin="round"/>
<path d="M2.72998 11.9006C3.17622 11.1681 3.80339 10.5627 4.55119 10.1427C5.29899 9.72259 6.14227 9.50195 6.99998 9.50195C7.85769 9.50195 8.70097 9.72259 9.44877 10.1427C10.1966 10.5627 10.8237 11.1681 11.27 11.9006" stroke="black" stroke-linecap="round" stroke-linejoin="round"/>
<path d="M7 13.5C10.5899 13.5 13.5 10.5899 13.5 7C13.5 3.41015 10.5899 0.5 7 0.5C3.41015 0.5 0.5 3.41015 0.5 7C0.5 10.5899 3.41015 13.5 7 13.5Z" stroke="black" stroke-linecap="round" stroke-linejoin="round"/>
</g>
<defs>
<clipPath id="clip0_2187_53979">
<rect width="14" height="14" fill="white"/>
</clipPath>
</defs>
</svg>
