<svg width="22" height="22" viewBox="0 0 22 22" fill="none" xmlns="http://www.w3.org/2000/svg">
<path fill-rule="evenodd" clip-rule="evenodd" d="M11.0003 2.08044L8.78746 4.36994C8.55194 4.61363 8.22756 4.75124 7.88865 4.75124H4.75026V7.88963C4.75026 8.22853 4.61265 8.55291 4.36896 8.78844L2.07946 11.0012L4.36896 13.214C4.61265 13.4496 4.75026 13.7739 4.75026 14.1128V17.2512H7.88865C8.22755 17.2512 8.55193 17.3888 8.78746 17.6325L11.0003 19.922L13.2131 17.6325C13.4486 17.3888 13.773 17.2512 14.1119 17.2512H17.2503V14.1128C17.2503 13.7739 17.3879 13.4496 17.6316 13.214L19.9211 11.0012L17.6316 8.78844C17.3879 8.55292 17.2503 8.22854 17.2503 7.88963V4.75124H14.1119C13.773 4.75124 13.4486 4.61363 13.2131 4.36994L11.0003 2.08044ZM10.1014 0.852004C10.5928 0.343602 11.4077 0.343603 11.8991 0.852004L14.2179 3.25124H17.5003C18.1906 3.25124 18.7503 3.81088 18.7503 4.50124V7.78357L21.1495 10.1024C21.6579 10.5938 21.6579 11.4087 21.1495 11.9L18.7503 14.2189V17.5012C18.7503 18.1916 18.1906 18.7512 17.5003 18.7512H14.2179L11.8991 21.1505C11.4077 21.6589 10.5928 21.6589 10.1014 21.1505L7.78259 18.7512H4.50026C3.8099 18.7512 3.25026 18.1916 3.25026 17.5012V14.2189L0.851027 11.9C0.342627 11.4087 0.342626 10.5938 0.851027 10.1024L3.25026 7.78357V4.50124C3.25026 3.81088 3.80991 3.25124 4.50026 3.25124H7.78259L10.1014 0.852004Z" fill="black"/>
<path fill-rule="evenodd" clip-rule="evenodd" d="M6.25026 11.0012C6.25026 8.37788 8.37691 6.25124 11.0003 6.25124C13.6236 6.25124 15.7503 8.37788 15.7503 11.0012C15.7503 13.6246 13.6236 15.7512 11.0003 15.7512C8.37691 15.7512 6.25026 13.6246 6.25026 11.0012ZM11.0003 7.75124C9.20534 7.75124 7.75026 9.20631 7.75026 11.0012C7.75026 12.7962 9.20534 14.2512 11.0003 14.2512C12.7952 14.2512 14.2503 12.7962 14.2503 11.0012C14.2503 9.20631 12.7952 7.75124 11.0003 7.75124Z" fill="black"/>
</svg>
