<svg width="24" height="24" viewBox="0 0 24 24" fill="none" xmlns="http://www.w3.org/2000/svg">
<g id="heroicons:hashtag-20-solid">
<path id="Vector" fill-rule="evenodd" clip-rule="evenodd" d="M11.3917 3.42344C11.4243 3.18697 11.3617 2.94723 11.2175 2.75696C11.0734 2.56668 10.8596 2.44146 10.6231 2.40884C10.3866 2.37622 10.1469 2.43887 9.95662 2.58301C9.76634 2.72715 9.64112 2.94097 9.6085 3.17744L9.0541 7.19984H5.0377C4.79901 7.19984 4.57009 7.29466 4.4013 7.46344C4.23252 7.63223 4.1377 7.86114 4.1377 8.09984C4.1377 8.33853 4.23252 8.56745 4.4013 8.73624C4.57009 8.90502 4.79901 8.99984 5.0377 8.99984H8.8057L7.9777 14.9998H3.9625C3.72381 14.9998 3.49489 15.0947 3.3261 15.2634C3.15732 15.4322 3.0625 15.6611 3.0625 15.8998C3.0625 16.1385 3.15732 16.3675 3.3261 16.5362C3.49489 16.705 3.72381 16.7998 3.9625 16.7998H7.7305L7.2085 20.5774C7.17588 20.8139 7.23853 21.0536 7.38267 21.2439C7.52681 21.4342 7.74063 21.5594 7.9771 21.592C8.21357 21.6247 8.45331 21.562 8.64358 21.4179C8.83386 21.2737 8.95908 21.0599 8.9917 20.8234L9.5461 16.7998H13.1293L12.6085 20.5774C12.5759 20.8139 12.6385 21.0536 12.7827 21.2439C12.9268 21.4342 13.1406 21.5594 13.3771 21.592C13.6136 21.6247 13.8533 21.562 14.0436 21.4179C14.2339 21.2737 14.3591 21.0599 14.3917 20.8234L14.9473 16.7998H18.9625C19.2012 16.7998 19.4301 16.705 19.5989 16.5362C19.7677 16.3675 19.8625 16.1385 19.8625 15.8998C19.8625 15.6611 19.7677 15.4322 19.5989 15.2634C19.4301 15.0947 19.2012 14.9998 18.9625 14.9998H15.1945L16.0225 8.99984H20.0377C20.2764 8.99984 20.5053 8.90502 20.6741 8.73624C20.8429 8.56745 20.9377 8.33853 20.9377 8.09984C20.9377 7.86114 20.8429 7.63223 20.6741 7.46344C20.5053 7.29466 20.2764 7.19984 20.0377 7.19984H16.2697L16.7917 3.42344C16.8243 3.18697 16.7617 2.94723 16.6175 2.75696C16.4734 2.56668 16.2596 2.44146 16.0231 2.40884C15.7866 2.37622 15.5469 2.43887 15.3566 2.58301C15.1663 2.72715 15.0411 2.94097 15.0085 3.17744L14.4541 7.19984H10.8709L11.3917 3.42344ZM10.6225 8.99984L9.7945 14.9998H13.3777L14.2057 8.99984H10.6225Z" fill="black"/>
</g>
</svg>
