<svg width="20" height="20" viewBox="0 0 20 20" fill="none" xmlns="http://www.w3.org/2000/svg">
<g id="Outline/Files/Image">
<g id="Icon">
<path d="M11.6663 7.4999C11.6663 6.80954 12.2259 6.2499 12.9163 6.2499C13.6066 6.2499 14.1663 6.80954 14.1663 7.4999C14.1663 8.19025 13.6066 8.7499 12.9163 8.7499C12.2259 8.7499 11.6663 8.19025 11.6663 7.4999Z" fill="black"/>
<path fill-rule="evenodd" clip-rule="evenodd" d="M6.05588 3.88203C8.68009 3.65391 11.3191 3.65391 13.9433 3.88203L15.2019 3.99143C16.4061 4.09611 17.3817 5.01248 17.5614 6.2078C17.9394 8.72173 17.9394 11.2781 17.5614 13.792C17.3817 14.9873 16.4061 15.9037 15.2019 16.0084L13.9433 16.1178C11.3191 16.3459 8.68008 16.3459 6.05588 16.1178L4.79735 16.0084C3.59313 15.9037 2.61757 14.9873 2.43782 13.792C2.05979 11.2781 2.05979 8.72173 2.43782 6.2078C2.61757 5.01248 3.59313 4.09611 4.79735 3.99143L6.05588 3.88203ZM13.8351 5.12733C11.2829 4.90547 8.7163 4.90547 6.16413 5.12733L4.9056 5.23673C4.277 5.29137 3.76775 5.76972 3.67392 6.39368C3.45931 7.82086 3.37282 9.26241 3.41444 10.7012L6.64099 7.47462C6.76271 7.35291 6.92923 7.28678 7.10129 7.29184C7.27335 7.29689 7.43571 7.37268 7.55006 7.50134L10.6096 10.9433L12.7186 10.2403C12.9545 10.1617 13.2145 10.2303 13.3808 10.4151L16.3134 13.6736C16.3179 13.6513 16.3219 13.6288 16.3253 13.6061C16.6848 11.2154 16.6848 8.78439 16.3253 6.39368C16.2315 5.76972 15.7222 5.29137 15.0936 5.23673L13.8351 5.12733ZM15.5164 14.6566L12.7256 11.5556L10.6139 12.2595C10.3767 12.3386 10.1152 12.2687 9.94913 12.0818L7.05617 8.82721L3.51977 12.3636C3.56042 12.7787 3.6118 13.193 3.67392 13.6061C3.76775 14.2301 4.277 14.7084 4.90561 14.7631L6.16413 14.8725C8.7163 15.0943 11.2829 15.0943 13.8351 14.8725L15.0936 14.7631C15.2426 14.7501 15.3848 14.7134 15.5164 14.6566Z" fill="black"/>
</g>
</g>
</svg>
