<svg width="16" height="16" viewBox="0 0 16 16" fill="none" xmlns="http://www.w3.org/2000/svg">
<g id="Outline/Communication/Share-box">
<g id="Icon">
<path fill-rule="evenodd" clip-rule="evenodd" d="M4.83329 10.0336C4.82777 10.263 4.97911 10.4667 5.20034 10.5277C5.42157 10.5886 5.65589 10.4912 5.76863 10.2913L6.37016 9.22496C7.08355 7.96033 8.50368 7.26748 9.93949 7.48358L10.039 7.49856C10.0569 7.95046 10.0823 8.40214 10.1152 8.85341L10.1604 9.47384C10.1972 9.97838 10.7598 10.2604 11.1861 9.98804C12.5845 9.09447 13.8003 7.94308 14.7685 6.59524L15.0726 6.17195C15.1978 5.99763 15.1978 5.76284 15.0726 5.58853L14.7685 5.16523C13.8003 3.8174 12.5845 2.666 11.1861 1.77243C10.7598 1.50004 10.1972 1.78209 10.1604 2.28663L10.1152 2.90706C10.0887 3.27088 10.0671 3.63496 10.0503 3.99922L9.37148 3.99922C6.92834 3.99922 4.9315 5.94862 4.87278 8.39106L4.83329 10.0336ZM10.0883 6.49472C8.47545 6.25197 6.87796 6.9013 5.88843 8.1536C6.06284 6.37816 7.55931 4.99922 9.37148 4.99922L10.5306 4.99922C10.8001 4.99922 11.0211 4.78564 11.0303 4.51631C11.0479 4.00378 11.0753 3.4915 11.1126 2.97976L11.1162 2.93012C12.2118 3.70456 13.172 4.65682 13.9563 5.74865L14.0508 5.88024L13.9563 6.01182C13.172 7.10365 12.2118 8.05591 11.1162 8.83035L11.1126 8.78071C11.0706 8.20479 11.0411 7.62818 11.0242 7.0513C11.0171 6.80956 10.838 6.60754 10.5988 6.57155L10.0883 6.49472Z" fill="black"/>
<path d="M13.094 11.6074C13.1727 10.9352 13.2282 10.2609 13.2605 9.58586C13.264 9.51278 13.2972 9.44432 13.352 9.3959C13.5943 9.18206 13.829 8.95985 14.0557 8.72967C14.141 8.6431 14.2901 8.70364 14.2875 8.82514C14.2667 9.7931 14.1999 10.7603 14.0873 11.7235C13.9296 13.0719 12.8467 14.1286 11.5053 14.2785C9.19425 14.5368 6.80536 14.5368 4.49431 14.2785C3.15294 14.1286 2.07005 13.0719 1.91235 11.7235C1.63599 9.36066 1.63599 6.97364 1.91235 4.61077C2.07005 3.26242 3.15294 2.20575 4.49431 2.05583C6.02163 1.88513 7.58294 1.82724 9.13331 1.88216C9.26384 1.88679 9.35371 2.01457 9.33744 2.14417C9.33405 2.17116 9.33134 2.19846 9.32932 2.22605L9.29514 2.69526C9.28729 2.80299 9.19532 2.88495 9.08738 2.88116C7.58933 2.82861 6.08058 2.88476 4.60538 3.04964C3.71864 3.14875 3.00832 3.84849 2.90558 4.72694C2.63825 7.01262 2.63825 9.32168 2.90558 11.6074C3.00832 12.4858 3.71864 13.1856 4.60538 13.2847C6.84262 13.5347 9.157 13.5347 11.3942 13.2847C12.281 13.1856 12.9913 12.4858 13.094 11.6074Z" fill="black"/>
</g>
</g>
</svg>
