<svg width="16" height="16" viewBox="0 0 16 16" fill="none" xmlns="http://www.w3.org/2000/svg">
<g id="Outline/General/Calendar">
<path id="Icon" fill-rule="evenodd" clip-rule="evenodd" d="M4.66752 2.16699C4.94366 2.16699 5.16752 2.39085 5.16752 2.66699V3.77874C7.05268 3.61086 8.94903 3.61086 10.8342 3.77875V2.66699C10.8342 2.39085 11.058 2.16699 11.3342 2.16699C11.6103 2.16699 11.8342 2.39085 11.8342 2.66699V3.87795C12.8296 4.01869 13.6159 4.80597 13.749 5.81022L13.8067 6.24552C14.0494 8.0764 14.0284 9.93262 13.7445 11.7576C13.6038 12.6616 12.8694 13.356 11.9589 13.4458L11.1635 13.5242C9.06017 13.7316 6.9415 13.7316 4.83814 13.5242L4.0428 13.4458C3.13231 13.356 2.39787 12.6616 2.2572 11.7576C1.97322 9.93262 1.95226 8.0764 2.19495 6.24552L2.25265 5.81022C2.38577 4.80596 3.17214 4.01867 4.16752 3.87794V2.66699C4.16752 2.39085 4.39138 2.16699 4.66752 2.16699ZM4.9643 4.8022C6.98376 4.60304 9.01791 4.60304 11.0374 4.80219L11.641 4.86172C12.2188 4.91871 12.6814 5.36602 12.7577 5.94162L12.8154 6.37692C12.8355 6.52899 12.8538 6.68125 12.8701 6.83366H3.13156C3.14788 6.68125 3.16612 6.529 3.18628 6.37692L3.24398 5.94162C3.32028 5.36602 3.78283 4.91871 4.36066 4.86172L4.9643 4.8022ZM3.05208 7.83366C2.98662 9.09238 3.05111 10.3558 3.2453 11.6038C3.31586 12.0573 3.68425 12.4055 4.14094 12.4506L4.93628 12.529C6.97437 12.73 9.0273 12.73 11.0654 12.529L11.8607 12.4506C12.3174 12.4055 12.6858 12.0573 12.7564 11.6038C12.9506 10.3558 13.015 9.09238 12.9496 7.83366H3.05208Z" fill="black"/>
</g>
</svg>
