<svg width="15" height="15" viewBox="0 0 15 15" fill="none" xmlns="http://www.w3.org/2000/svg">
<path fill-rule="evenodd" clip-rule="evenodd" d="M3.54244 0.573242C3.87035 0.573242 4.13619 0.839076 4.13619 1.16699V2.4872C6.37482 2.28784 8.62673 2.28784 10.8654 2.48721V1.16699C10.8654 0.839076 11.1311 0.573242 11.4591 0.573242C11.787 0.573242 12.0529 0.839076 12.0529 1.16699V2.60501C13.2349 2.77214 14.1686 3.70703 14.3267 4.89958L14.3952 5.4165C14.6834 7.59067 14.6585 9.79493 14.3214 11.9621C14.1543 13.0356 13.2822 13.8602 12.201 13.9668L11.2564 14.0599C8.75871 14.3062 6.24279 14.3062 3.74505 14.0599L2.80058 13.9668C1.71938 13.8602 0.847229 13.0356 0.680184 11.9621C0.342957 9.79493 0.318068 7.59067 0.606262 5.4165L0.674781 4.89958C0.832861 3.70702 1.76667 2.77211 2.94869 2.605V1.16699C2.94869 0.839076 3.21452 0.573242 3.54244 0.573242ZM3.89487 3.70255C6.29297 3.46605 8.70853 3.46605 11.1067 3.70254L11.8234 3.77323C12.5096 3.84091 13.0589 4.37209 13.1495 5.05561L13.218 5.57253C13.2419 5.75312 13.2636 5.93393 13.283 6.11491H1.71849C1.73787 5.93393 1.75953 5.75313 1.78347 5.57253L1.85198 5.05561C1.94259 4.37209 2.49187 3.84091 3.17804 3.77323L3.89487 3.70255ZM1.6241 7.30241C1.54637 8.79714 1.62295 10.2975 1.85355 11.7795C1.93734 12.318 2.37481 12.7315 2.91713 12.785L3.86159 12.8781C6.28182 13.1168 8.71968 13.1168 11.1399 12.8781L12.0843 12.785C12.6267 12.7315 13.0641 12.318 13.148 11.7795C13.3786 10.2975 13.4551 8.79714 13.3774 7.30241H1.6241Z" fill="#7E51FD"/>
</svg>
