<svg width="24" height="24" viewBox="0 0 24 28" fill="none" xmlns="http://www.w3.org/2000/svg">
<g filter="url(#filter0_d_1751_2390)">
<path fill-rule="evenodd" clip-rule="evenodd" d="M8.66654 6.1665C8.94269 6.1665 9.16654 6.39036 9.16654 6.6665V7.77826C11.0517 7.61037 12.9481 7.61037 14.8332 7.77826V6.6665C14.8332 6.39036 15.0571 6.1665 15.3332 6.1665C15.6094 6.1665 15.8332 6.39036 15.8332 6.6665V7.87746C16.8286 8.0182 17.6149 8.80548 17.748 9.80973L17.8057 10.245C18.0484 12.0759 18.0275 13.9321 17.7435 15.7571C17.6028 16.6611 16.8684 17.3555 15.9579 17.4453L15.1626 17.5237C13.0592 17.7311 10.9405 17.7311 8.83716 17.5237L8.04183 17.4453C7.13133 17.3555 6.39689 16.6611 6.25622 15.7571C5.97225 13.9321 5.95129 12.0759 6.19398 10.245L6.25168 9.80973C6.3848 8.80547 7.17116 8.01818 8.16654 7.87745V6.6665C8.16654 6.39036 8.3904 6.1665 8.66654 6.1665ZM8.96332 8.80171C10.9828 8.60256 13.0169 8.60256 15.0364 8.80171L15.64 8.86123C16.2179 8.91822 16.6804 9.36553 16.7567 9.94113L16.8144 10.3764C16.8346 10.5285 16.8528 10.6808 16.8691 10.8332H7.13059C7.14691 10.6808 7.16515 10.5285 7.18531 10.3764L7.24301 9.94113C7.3193 9.36553 7.78185 8.91822 8.35969 8.86123L8.96332 8.80171ZM7.0511 11.8332C6.98565 13.0919 7.05013 14.3553 7.24433 15.6033C7.31489 16.0568 7.68327 16.4051 8.13997 16.4501L8.9353 16.5285C10.9734 16.7295 13.0263 16.7295 15.0644 16.5285L15.8598 16.4501C16.3164 16.4051 16.6848 16.0568 16.7554 15.6033C16.9496 14.3553 17.0141 13.0919 16.9486 11.8332H7.0511Z" fill="black"/>
</g>
<defs>
<filter id="filter0_d_1751_2390" x="-4" y="0" width="32" height="32" filterUnits="userSpaceOnUse" color-interpolation-filters="sRGB">
<feFlood flood-opacity="0" result="BackgroundImageFix"/>
<feColorMatrix in="SourceAlpha" type="matrix" values="0 0 0 0 0 0 0 0 0 0 0 0 0 0 0 0 0 0 127 0" result="hardAlpha"/>
<feOffset dy="4"/>
<feGaussianBlur stdDeviation="2"/>
<feComposite in2="hardAlpha" operator="out"/>
<feColorMatrix type="matrix" values="0 0 0 0 0 0 0 0 0 0 0 0 0 0 0 0 0 0 0.25 0"/>
<feBlend mode="normal" in2="BackgroundImageFix" result="effect1_dropShadow_1751_2390"/>
<feBlend mode="normal" in="SourceGraphic" in2="effect1_dropShadow_1751_2390" result="shape"/>
</filter>
</defs>
</svg>
