<svg width="14" height="14" viewBox="0 0 14 14" fill="none" xmlns="http://www.w3.org/2000/svg">
<path d="M7.44284 2.93821C7.44284 2.61368 7.17974 2.35059 6.85521 2.35059C6.53067 2.35059 6.26758 2.61368 6.26758 2.93821V6.85575C6.26758 7.05835 6.37195 7.24668 6.54376 7.35405L8.89428 8.82312C9.16949 8.99513 9.53203 8.91146 9.70397 8.63625C9.87603 8.36105 9.79235 7.99851 9.51711 7.82651L7.44284 6.53005V2.93821Z" fill="#7E51FD"/>
<path fill-rule="evenodd" clip-rule="evenodd" d="M6.85567 0C3.06939 0 0 3.06939 0 6.85568C0 10.642 3.06939 13.7114 6.85567 13.7114C10.6419 13.7114 13.7114 10.642 13.7114 6.85568C13.7114 3.06939 10.6419 0 6.85567 0ZM1.17526 6.85568C1.17526 3.71847 3.71846 1.17526 6.85567 1.17526C9.99284 1.17526 12.5361 3.71847 12.5361 6.85568C12.5361 9.99288 9.99284 12.5361 6.85567 12.5361C3.71846 12.5361 1.17526 9.99288 1.17526 6.85568Z" fill="#7E51FD"/>
</svg>
