<svg width="24" height="24" viewBox="0 0 24 24" fill="none" xmlns="http://www.w3.org/2000/svg">
<path d="M12.5003 8.6665C12.5003 8.39036 12.2765 8.1665 12.0003 8.1665C11.7242 8.1665 11.5003 8.39036 11.5003 8.6665V11.9998C11.5003 12.1722 11.5891 12.3325 11.7353 12.4238L13.7353 13.6738C13.9695 13.8202 14.278 13.749 14.4243 13.5148C14.5707 13.2807 14.4995 12.9722 14.2653 12.8258L12.5003 11.7227V8.6665Z" fill="black"/>
<path fill-rule="evenodd" clip-rule="evenodd" d="M12.0003 6.1665C8.77866 6.1665 6.16699 8.77818 6.16699 11.9998C6.16699 15.2215 8.77866 17.8332 12.0003 17.8332C15.222 17.8332 17.8337 15.2215 17.8337 11.9998C17.8337 8.77818 15.222 6.1665 12.0003 6.1665ZM7.16699 11.9998C7.16699 9.33046 9.33095 7.1665 12.0003 7.1665C14.6697 7.1665 16.8337 9.33046 16.8337 11.9998C16.8337 14.6692 14.6697 16.8332 12.0003 16.8332C9.33095 16.8332 7.16699 14.6692 7.16699 11.9998Z" fill="black"/>
</svg>
