<svg width="16" height="16" viewBox="0 0 16 16" fill="none" xmlns="http://www.w3.org/2000/svg">
<g id="Outline/General/Clock">
<g id="Icon">
<path d="M8.49935 4.66699C8.49935 4.39085 8.27549 4.16699 7.99935 4.16699C7.72321 4.16699 7.49935 4.39085 7.49935 4.66699V8.00033C7.49935 8.17272 7.58816 8.33296 7.73435 8.42432L9.73435 9.67432C9.96852 9.82068 10.277 9.74949 10.4233 9.51532C10.5697 9.28116 10.4985 8.97268 10.2643 8.82633L8.49935 7.7232V4.66699Z" fill="black"/>
<path fill-rule="evenodd" clip-rule="evenodd" d="M7.99935 2.16699C4.77769 2.16699 2.16602 4.77866 2.16602 8.00033C2.16602 11.222 4.77769 13.8337 7.99935 13.8337C11.221 13.8337 13.8327 11.222 13.8327 8.00033C13.8327 4.77866 11.221 2.16699 7.99935 2.16699ZM3.16602 8.00033C3.16602 5.33095 5.32997 3.16699 7.99935 3.16699C10.6687 3.16699 12.8327 5.33095 12.8327 8.00033C12.8327 10.6697 10.6687 12.8337 7.99935 12.8337C5.32997 12.8337 3.16602 10.6697 3.16602 8.00033Z" fill="black"/>
</g>
</g>
</svg>
