<svg width="32" height="32" viewBox="0 0 32 32" fill="none" xmlns="http://www.w3.org/2000/svg">
<g id="Solid/Interface/Layout">
<g id="Icon">
<path d="M12.0912 4.30376C10.2732 4.10057 8.39447 4.10057 6.57648 4.30376C5.40691 4.43447 4.46117 5.35548 4.32325 6.53473C4.10579 8.39395 4.10579 10.2722 4.32325 12.1314C4.46117 13.3107 5.40691 14.2317 6.57648 14.3624C8.39447 14.5656 10.2732 14.5656 12.0912 14.3624C13.2608 14.2317 14.2065 13.3107 14.3444 12.1314C14.5619 10.2722 14.5619 8.39395 14.3444 6.53473C14.2065 5.35548 13.2608 4.43447 12.0912 4.30376Z" fill="#D9D9D9"/>
<path d="M12.0912 17.6371C10.2732 17.4339 8.39447 17.4339 6.57648 17.6371C5.40691 17.7678 4.46117 18.6888 4.32325 19.8681C4.10579 21.7273 4.10579 23.6055 4.32325 25.4647C4.46117 26.644 5.40691 27.565 6.57648 27.6957C8.39447 27.8989 10.2732 27.8989 12.0912 27.6957C13.2608 27.565 14.2065 26.644 14.3444 25.4647C14.5619 23.6055 14.5619 21.7273 14.3444 19.8681C14.2065 18.6888 13.2608 17.7678 12.0912 17.6371Z" fill="#D9D9D9"/>
<path d="M25.4245 4.30376C23.6066 4.10057 21.7278 4.10057 19.9098 4.30376C18.7403 4.43447 17.7945 5.35548 17.6566 6.53473C17.4391 8.39395 17.4391 10.2722 17.6566 12.1314C17.7945 13.3107 18.7403 14.2317 19.9098 14.3624C21.7278 14.5656 23.6066 14.5656 25.4245 14.3624C26.5941 14.2317 27.5399 13.3107 27.6778 12.1314C27.8952 10.2722 27.8952 8.39395 27.6778 6.53473C27.5399 5.35548 26.5941 4.43447 25.4245 4.30376Z" fill="#D9D9D9"/>
<path d="M25.4245 17.6371C23.6066 17.4339 21.7278 17.4339 19.9098 17.6371C18.7403 17.7678 17.7945 18.6888 17.6566 19.8681C17.4391 21.7273 17.4391 23.6055 17.6566 25.4647C17.7945 26.644 18.7403 27.565 19.9098 27.6957C21.7278 27.8989 23.6066 27.8989 25.4245 27.6957C26.5941 27.565 27.5399 26.644 27.6778 25.4647C27.8952 23.6055 27.8952 21.7273 27.6778 19.8681C27.5399 18.6888 26.5941 17.7678 25.4245 17.6371Z" fill="#D9D9D9"/>
</g>
</g>
</svg>
