<svg width="26" height="26" viewBox="0 0 26 26" fill="none" xmlns="http://www.w3.org/2000/svg">
<path id="Union" fill-rule="evenodd" clip-rule="evenodd" d="M3.95743 0.288404C3.28248 0.270529 2.60426 0.298733 1.93962 0.373017C1.13271 0.4632 0.478815 1.0983 0.383272 1.91519C0.255055 3.01145 0.255055 4.11891 0.383272 5.21516C0.478815 6.03206 1.13271 6.66716 1.93962 6.75734C2.78236 6.85153 3.64692 6.87164 4.49898 6.81766H12.0647C12.9167 6.87164 13.7813 6.85153 14.6241 6.75734C15.431 6.66716 16.0849 6.03206 16.1804 5.21516C16.3086 4.11891 16.3086 3.01145 16.1804 1.91519C16.0849 1.0983 15.431 0.4632 14.6241 0.373017C14.1636 0.321558 13.6967 0.292211 13.2288 0.284978V0.283861H13.1391C13.0458 0.282984 12.9526 0.282984 12.8594 0.283861H3.95743V0.288404ZM20.8092 0.373017C21.8806 0.253265 22.9874 0.253265 24.0588 0.373017C24.8657 0.4632 25.5196 1.0983 25.6152 1.91519C25.7434 3.01145 25.7434 4.11891 25.6152 5.21516C25.5196 6.03206 24.8657 6.66716 24.0588 6.75734C22.9874 6.87709 21.8806 6.87709 20.8092 6.75734C20.0023 6.66716 19.3484 6.03206 19.2528 5.21516C19.1246 4.11891 19.1246 3.01145 19.2528 1.91519C19.3484 1.0983 20.0023 0.4632 20.8092 0.373017ZM1.93962 9.8078C2.69528 9.72334 3.46849 9.69845 4.2345 9.73312H12.3292C13.0952 9.69845 13.8684 9.72334 14.6241 9.8078C15.431 9.89798 16.0849 10.5331 16.1804 11.35C16.3086 12.4462 16.3086 13.5537 16.1804 14.6499C16.0849 15.4668 15.431 16.1019 14.6241 16.1921C13.8693 16.2765 13.097 16.3014 12.3318 16.2669H4.23185C3.46671 16.3014 2.69441 16.2765 1.93962 16.1921C1.13271 16.1019 0.478815 15.4668 0.383272 14.6499C0.255055 13.5537 0.255055 12.4462 0.383272 11.35C0.478815 10.5331 1.13271 9.89798 1.93962 9.8078ZM24.0588 9.8078C22.9874 9.68805 21.8806 9.68805 20.8092 9.8078C20.0023 9.89798 19.3484 10.5331 19.2528 11.35C19.1246 12.4462 19.1246 13.5537 19.2528 14.6499C19.3484 15.4668 20.0023 16.1019 20.8092 16.1921C21.8806 16.3119 22.9874 16.3119 24.0588 16.1921C24.8657 16.1019 25.5196 15.4668 25.6152 14.6499C25.7434 13.5537 25.7434 12.4462 25.6152 11.35C25.5196 10.5331 24.8657 9.89798 24.0588 9.8078ZM4.50084 19.1824C3.64818 19.1283 2.78297 19.1483 1.93962 19.2426C1.13271 19.3328 0.478815 19.9679 0.383272 20.7848C0.255055 21.881 0.255055 22.9885 0.383272 24.0847C0.478815 24.9016 1.13271 25.5367 1.93962 25.6269C2.60426 25.7012 3.28248 25.7294 3.95743 25.7115V25.7162H12.8724C12.9569 25.7169 13.0415 25.7169 13.1261 25.7162H13.2288V25.7149C13.6967 25.7077 14.1636 25.6784 14.6241 25.6269C15.431 25.5367 16.0849 24.9016 16.1804 24.0847C16.3086 22.9885 16.3086 21.881 16.1804 20.7848C16.0849 19.9679 15.431 19.3328 14.6241 19.2426C13.7807 19.1483 12.9155 19.1283 12.0628 19.1824H4.50084ZM20.8092 19.2426C21.8806 19.1228 22.9874 19.1228 24.0588 19.2426C24.8657 19.3328 25.5196 19.9679 25.6152 20.7848C25.7434 21.881 25.7434 22.9885 25.6152 24.0847C25.5196 24.9016 24.8657 25.5367 24.0588 25.6269C22.9874 25.7467 21.8806 25.7467 20.8092 25.6269C20.0023 25.5367 19.3484 24.9016 19.2528 24.0847C19.1246 22.9885 19.1246 21.881 19.2528 20.7848C19.3484 19.9679 20.0023 19.3328 20.8092 19.2426Z" fill="#D9D9D9"/>
</svg>
