<svg width="24" height="24" viewBox="0 0 24 24" fill="none" xmlns="http://www.w3.org/2000/svg">
<path fill-rule="evenodd" clip-rule="evenodd" d="M8.83302 10.6668C8.83302 8.91793 10.2508 7.50016 11.9997 7.50016C13.7486 7.50016 15.1664 8.91793 15.1664 10.6668C15.1664 12.4157 13.7486 13.8335 11.9997 13.8335C10.2508 13.8335 8.83302 12.4157 8.83302 10.6668ZM11.9997 8.50016C10.8031 8.50016 9.83302 9.47021 9.83302 10.6668C9.83302 11.8634 10.8031 12.8335 11.9997 12.8335C13.1963 12.8335 14.1664 11.8634 14.1664 10.6668C14.1664 9.47021 13.1963 8.50016 11.9997 8.50016Z" fill="black"/>
<path fill-rule="evenodd" clip-rule="evenodd" d="M6.34927 9.90473C6.58548 7.03899 8.98025 4.8335 11.8557 4.8335H12.1437C15.0191 4.8335 17.4139 7.03899 17.6501 9.90473C17.777 11.4442 17.3015 12.9728 16.3237 14.1685L13.1283 18.0764C12.545 18.7898 11.4544 18.7898 10.871 18.0764L7.67567 14.1685C6.69789 12.9728 6.22237 11.4442 6.34927 9.90473ZM11.8557 5.8335C9.50069 5.8335 7.53935 7.63981 7.34589 9.98688C7.24028 11.2681 7.63604 12.5403 8.44981 13.5355L11.6452 17.4434C11.8284 17.6675 12.171 17.6675 12.3542 17.4434L15.5496 13.5355C16.3633 12.5403 16.7591 11.2681 16.6535 9.98688C16.46 7.63981 14.4987 5.8335 12.1437 5.8335H11.8557Z" fill="black"/>
</svg>
