<svg width="16" height="16" viewBox="0 0 16 16" fill="none" xmlns="http://www.w3.org/2000/svg">
<g id="Outline/Navigation/Location">
<g id="Icon">
<path fill-rule="evenodd" clip-rule="evenodd" d="M4.834 6.66634C4.834 4.91744 6.25177 3.49967 8.00067 3.49967C9.74957 3.49967 11.1673 4.91744 11.1673 6.66634C11.1673 8.41524 9.74957 9.83301 8.00067 9.83301C6.25177 9.83301 4.834 8.41524 4.834 6.66634ZM8.00067 4.49967C6.80405 4.49967 5.834 5.46972 5.834 6.66634C5.834 7.86296 6.80405 8.83301 8.00067 8.83301C9.19728 8.83301 10.1673 7.86296 10.1673 6.66634C10.1673 5.46972 9.19728 4.49967 8.00067 4.49967Z" fill="black"/>
<path fill-rule="evenodd" clip-rule="evenodd" d="M2.35024 5.90424C2.58646 3.0385 4.98123 0.833008 7.85669 0.833008H8.14465C11.0201 0.833008 13.4149 3.0385 13.6511 5.90424C13.778 7.44367 13.3025 8.97227 12.3247 10.1681L9.12932 14.0759C8.54599 14.7893 7.45535 14.7893 6.87202 14.0759L3.67664 10.1681C2.69887 8.97227 2.22335 7.44367 2.35024 5.90424ZM7.85669 1.83301C5.50166 1.83301 3.54033 3.63933 3.34686 5.98639C3.24125 7.26762 3.63702 8.53983 4.45079 9.53506L7.64617 13.4429C7.82939 13.667 8.17195 13.667 8.35517 13.4429L11.5505 9.53505C12.3643 8.53983 12.7601 7.26762 12.6545 5.98639C12.461 3.63933 10.4997 1.83301 8.14465 1.83301H7.85669Z" fill="black"/>
</g>
</g>
</svg>
