<svg width="15" height="18" viewBox="0 0 15 18" fill="none" xmlns="http://www.w3.org/2000/svg">
<path fill-rule="evenodd" clip-rule="evenodd" d="M3.74023 7.91667C3.74023 5.83985 5.42384 4.15625 7.50066 4.15625C9.57747 4.15625 11.261 5.83985 11.261 7.91667C11.261 9.99349 9.57747 11.6771 7.50066 11.6771C5.42384 11.6771 3.74023 9.99349 3.74023 7.91667ZM7.50066 5.34375C6.07967 5.34375 4.92773 6.49568 4.92773 7.91667C4.92773 9.33766 6.07967 10.4896 7.50066 10.4896C8.92163 10.4896 10.0735 9.33766 10.0735 7.91667C10.0735 6.49568 8.92163 5.34375 7.50066 5.34375Z" fill="#7E51FD"/>
<path fill-rule="evenodd" clip-rule="evenodd" d="M0.790547 7.01135C1.07106 3.60828 3.91485 0.989258 7.32946 0.989258H7.67141C11.086 0.989258 13.9298 3.60828 14.2103 7.01135C14.361 8.83942 13.7964 10.6546 12.6352 12.0747L8.8407 16.7152C8.148 17.5624 6.85286 17.5624 6.16016 16.7152L2.36565 12.0747C1.20454 10.6546 0.639865 8.83942 0.790547 7.01135ZM7.32946 2.17676C4.53286 2.17676 2.20378 4.32177 1.97403 7.1089C1.84862 8.63036 2.3186 10.1411 3.28495 11.3229L7.07946 15.9635C7.29704 16.2296 7.70383 16.2296 7.9214 15.9635L11.7159 11.3229C12.6822 10.1411 13.1523 8.63036 13.0269 7.1089C12.7971 4.32177 10.468 2.17676 7.67141 2.17676H7.32946Z" fill="#7E51FD"/>
</svg>
