<svg width="12" height="12" viewBox="0 0 12 12" fill="none" xmlns="http://www.w3.org/2000/svg">
<path fill-rule="evenodd" clip-rule="evenodd" d="M7.59026 8.29736C5.82341 9.71246 3.23713 9.60109 1.59927 7.96323C-0.15809 6.20587 -0.15809 3.35663 1.59927 1.59927C3.35663 -0.15809 6.20587 -0.15809 7.96323 1.59927C9.60108 3.23712 9.71246 5.82341 8.29737 7.59025L11.7345 11.0273C11.9297 11.2226 11.9297 11.5392 11.7345 11.7344C11.5392 11.9297 11.2226 11.9297 11.0273 11.7344L7.59026 8.29736ZM2.30638 7.25612C0.939541 5.88929 0.939541 3.67321 2.30638 2.30638C3.67321 0.939541 5.88929 0.939541 7.25612 2.30638C8.62196 3.67221 8.62296 5.88603 7.25913 7.25311C7.25812 7.2541 7.25712 7.2551 7.25611 7.25611C7.25511 7.25711 7.25411 7.25812 7.25312 7.25913C5.88604 8.62296 3.67221 8.62196 2.30638 7.25612Z" fill="#D9D9D9"/>
</svg>
