<svg width="32" height="32" viewBox="0 0 32 32" fill="none" xmlns="http://www.w3.org/2000/svg">
<path d="M16.0051 0C9.32532 0 7.3717 0.00689379 6.99193 0.0383395C5.62114 0.15239 4.76812 0.368277 3.8389 0.831012C3.12266 1.18683 2.55785 1.59913 2.00042 2.17713C0.985204 3.23128 0.369957 4.52818 0.147177 6.06962C0.0389308 6.81803 0.0073642 6.97066 0.00107507 10.7932C-0.00134383 12.0675 0.00107507 13.7443 0.00107507 15.9938C0.00107507 22.6699 0.00833232 24.6221 0.0403827 25.0012C0.151168 26.3355 0.360282 27.175 0.803303 28.0932C1.64992 29.8509 3.26695 31.1704 5.17183 31.6628C5.83135 31.8326 6.55979 31.9262 7.49494 31.9704C7.89128 31.9876 11.9299 32 15.9709 32C20.012 32 24.0531 31.9951 24.4394 31.9754C25.5224 31.9244 26.1512 31.8399 26.8465 31.6602C28.7636 31.1656 30.351 29.8656 31.2149 28.0834C31.6492 27.1872 31.8695 26.3158 31.9691 25.0513C31.9909 24.7756 31.9999 20.3796 31.9999 15.9895C31.9999 11.5987 31.99 7.21098 31.9685 6.93522C31.8675 5.65018 31.6473 4.78603 31.1988 3.8729C30.8309 3.12522 30.4223 2.56681 29.8292 1.99595C28.7707 0.984733 27.4762 0.369245 25.9336 0.146706C25.1862 0.0385816 25.0374 0.00665197 21.2128 0H16.0051Z" fill="#E84C88"/>
<path d="M16 25C20.9706 25 25 20.9706 25 16C25 11.0294 20.9706 7 16 7C11.0294 7 7 11.0294 7 16C7 20.9706 11.0294 25 16 25Z" stroke="white" stroke-width="1.41573"/>
<path d="M7.05078 15.0392C7.05078 15.0392 18.4272 15.5954 22.4721 9.73022M24.9497 16.91C20.1968 15.2415 13.7249 16.101 9.98337 22.7246" stroke="white" stroke-width="1.41573"/>
<path d="M12.7637 7.60669C16.7075 12.6629 19.185 18.0224 20.0951 23.9887" stroke="white" stroke-width="1.61798"/>
</svg>
