<svg width="32" height="32" viewBox="0 0 32 32" fill="none" xmlns="http://www.w3.org/2000/svg">
<path d="M24.5 0H7.5C3.35786 0 0 3.35786 0 7.5V24.5C0 28.6421 3.35786 32 7.5 32H24.5C28.6421 32 32 28.6421 32 24.5V7.5C32 3.35786 28.6421 0 24.5 0Z" fill="#242938"/>
<mask id="mask0_3072_23868" style="mask-type:luminance" maskUnits="userSpaceOnUse" x="7" y="3" width="18" height="26">
<path d="M7.625 3.5H24.295V28.5H7.625V3.5Z" fill="white"/>
</mask>
<g mask="url(#mask0_3072_23868)">
<path d="M11.7933 28.5004C14.0933 28.5004 15.96 26.6337 15.96 24.3337V20.167H11.7933C9.49334 20.167 7.62659 22.0337 7.62659 24.3337C7.62659 26.6337 9.49334 28.5004 11.7933 28.5004Z" fill="#0ACF83"/>
<path d="M7.62659 15.9996C7.62659 13.6996 9.49334 11.833 11.7933 11.833H15.96V20.1663H11.7933C9.49334 20.1663 7.62659 18.2996 7.62659 15.9996Z" fill="#A259FF"/>
<path d="M7.62659 7.66663C7.62659 5.36663 9.49334 3.5 11.7933 3.5H15.96V11.8334H11.7933C9.49334 11.8334 7.62659 9.96663 7.62659 7.66663Z" fill="#F24E1E"/>
<path d="M15.96 3.5H20.1266C22.4266 3.5 24.2933 5.36663 24.2933 7.66663C24.2933 9.96663 22.4266 11.8334 20.1266 11.8334H15.96V3.5Z" fill="#FF7262"/>
<path d="M24.2933 15.9996C24.2933 18.2996 22.4266 20.1663 20.1266 20.1663C17.8266 20.1663 15.96 18.2996 15.96 15.9996C15.96 13.6996 17.8266 11.833 20.1266 11.833C22.4266 11.833 24.2933 13.6996 24.2933 15.9996Z" fill="#1ABCFE"/>
</g>
</svg>
