<svg width="32" height="32" viewBox="0 0 32 32" fill="none" xmlns="http://www.w3.org/2000/svg">
<path d="M16.0051 0.000244141C9.32532 0.000244141 7.3717 0.00713793 6.99193 0.0385836C5.62114 0.152635 4.76812 0.368521 3.8389 0.831257C3.12266 1.18708 2.55785 1.59938 2.00042 2.17737C0.985204 3.23153 0.369957 4.52842 0.147177 6.06986C0.0389308 6.81827 0.0073642 6.9709 0.00107507 10.7935C-0.00134383 12.0678 0.00107507 13.7445 0.00107507 15.994C0.00107507 22.6702 0.00833232 24.6223 0.0403827 25.0015C0.151168 26.3358 0.360282 27.1752 0.803303 28.0934C1.64992 29.8511 3.26695 31.1706 5.17183 31.663C5.83135 31.8328 6.55979 31.9264 7.49494 31.9707C7.89128 31.9879 11.9299 32.0002 15.9709 32.0002C20.012 32.0002 24.0531 31.9954 24.4394 31.9757C25.5224 31.9246 26.1512 31.8402 26.8465 31.6605C28.7636 31.1658 30.351 29.8659 31.2149 28.0836C31.6492 27.1874 31.8695 26.316 31.9691 25.0516C31.9909 24.7758 31.9999 20.3798 31.9999 15.9898C31.9999 11.599 31.99 7.21122 31.9685 6.93547C31.8675 5.65043 31.6473 4.78628 31.1988 3.87314C30.8309 3.12546 30.4223 2.56706 29.8292 1.9962C28.7707 0.984977 27.4762 0.369489 25.9336 0.14695C25.1862 0.0388257 25.0374 0.00689611 21.2128 0.000244141H16.0051Z" fill="#050505"/>
<path d="M21.5022 32.0002H11.1611C12.012 32.0002 12.2083 31.6182 12.2083 31.2361L12.1429 28.4345C7.49591 29.4533 6.51416 26.2695 6.51416 26.2695C5.72876 24.3593 4.68156 23.9136 4.68156 23.9136C3.11076 22.8948 4.74701 22.8948 4.74701 22.8948C6.44871 23.0221 7.36501 24.5503 7.36501 24.5503C8.80491 27.0336 11.2266 26.3332 12.2083 25.9512C12.3392 24.8687 12.7974 24.1683 13.2555 23.7225C9.52486 23.3405 5.66331 21.9397 5.66331 15.6995C5.66331 13.9167 6.31781 12.4521 7.36501 11.306C7.16866 10.9239 6.64506 9.2684 7.56136 7.03979C7.56136 7.03979 8.93581 6.59407 12.1429 8.69533C14.8918 7.93124 17.7716 7.93124 20.5205 8.69533C23.7275 6.59407 25.102 7.03979 25.102 7.03979C26.0183 9.2684 25.4946 10.9239 25.2983 11.306C26.3455 12.4521 27 13.9167 27 15.6995C27 21.9397 23.073 23.3405 19.3424 23.7225C19.9969 24.2319 20.5205 25.2507 20.5205 26.7789L20.455 31.2361C20.455 31.6182 20.6514 32.0002 21.5022 32.0002Z" fill="white"/>
</svg>
