<svg width="32" height="32" viewBox="0 0 32 32" fill="none" xmlns="http://www.w3.org/2000/svg">
<rect width="32" height="32" rx="6" fill="#231E1B"/>
<path fill-rule="evenodd" clip-rule="evenodd" d="M15.9725 7C11.0183 7 7 11.1304 7 16.2227C7 20.2965 9.58716 23.7479 13.1101 24.9927C13.5505 25.0493 13.7156 24.7664 13.7156 24.54C13.7156 24.3137 13.7156 23.7479 13.7156 22.9558C11.2385 23.5216 10.6881 21.711 10.6881 21.711C10.3028 20.636 9.69725 20.3531 9.69725 20.3531C8.87156 19.7873 9.75229 19.7873 9.75229 19.7873C10.633 19.8438 11.1284 20.7491 11.1284 20.7491C11.9541 22.1636 13.2202 21.7676 13.7156 21.5413C13.7706 20.9189 14.0459 20.5228 14.2661 20.2965C12.2844 20.0702 10.1927 19.278 10.1927 15.7134C10.1927 14.695 10.5229 13.9029 11.1284 13.2239C11.0734 13.0541 10.7431 12.0923 11.2385 10.8475C11.2385 10.8475 12.0092 10.6212 13.7156 11.8094C14.4312 11.583 15.2018 11.5265 15.9725 11.5265C16.7431 11.5265 17.5138 11.6396 18.2294 11.8094C19.9358 10.6212 20.7064 10.8475 20.7064 10.8475C21.2018 12.0923 20.8716 13.0541 20.8165 13.2805C21.367 13.9029 21.7523 14.7516 21.7523 15.77C21.7523 19.3346 19.6606 20.0702 17.6789 20.2965C18.0092 20.5794 18.2844 21.1452 18.2844 21.9939C18.2844 23.2387 18.2844 24.2006 18.2844 24.54C18.2844 24.7664 18.4495 25.0493 18.8899 24.9927C22.4679 23.7479 25 20.2965 25 16.2227C24.945 11.1304 20.9266 7 15.9725 7Z" fill="white"/>
</svg>
