<svg width="32" height="32" viewBox="0 0 32 32" fill="none" xmlns="http://www.w3.org/2000/svg">
<g clip-path="url(#clip0_3511_18013)">
<mask id="mask0_3511_18013" style="mask-type:alpha" maskUnits="userSpaceOnUse" x="0" y="0" width="32" height="32">
<rect width="32" height="32" rx="6" fill="#D9D9D9"/>
<rect width="32" height="32" rx="6" fill="url(#paint0_linear_3511_18013)"/>
</mask>
<g mask="url(#mask0_3511_18013)">
<path d="M16.0055 -1C8.90817 -1 6.83244 -0.992675 6.42894 -0.959264C4.97247 -0.838085 4.06613 -0.608705 3.07884 -0.117048C2.31783 0.261011 1.71772 0.699081 1.12545 1.3132C0.0467813 2.43324 -0.60692 3.81119 -0.843625 5.44898C-0.958636 6.24416 -0.992176 6.40633 -0.998858 10.4678C-1.00143 11.8218 -0.998858 13.6033 -0.998858 15.9934C-0.998858 23.0868 -0.991147 25.161 -0.957093 25.5639C-0.839383 26.9815 -0.6172 27.8735 -0.146489 28.8491C0.75304 30.7166 2.47114 32.1186 4.49508 32.6417C5.19581 32.8221 5.96979 32.9216 6.96339 32.9686C7.3845 32.9869 11.6755 33 15.9691 33C20.2628 33 24.5565 32.9949 24.9669 32.9739C26.1176 32.9197 26.7857 32.83 27.5244 32.639C29.5614 32.1134 31.248 30.7323 32.1659 28.8387C32.6273 27.8864 32.8613 26.9606 32.9672 25.6171C32.9904 25.3241 33 20.6533 33 15.9889C33 11.3237 32.9895 6.66167 32.9666 6.36868C32.8593 5.00333 32.6253 4.08516 32.1488 3.11496C31.7579 2.32055 31.3238 1.72724 30.6936 1.1207C29.5689 0.0462804 28.1936 -0.607677 26.5545 -0.844124C25.7603 -0.959007 25.6023 -0.992932 21.5386 -1H16.0055Z" fill="url(#paint1_radial_3511_18013)"/>
<path d="M16.0055 -1C8.90817 -1 6.83244 -0.992675 6.42894 -0.959264C4.97247 -0.838085 4.06613 -0.608705 3.07884 -0.117048C2.31783 0.261011 1.71772 0.699081 1.12545 1.3132C0.0467813 2.43324 -0.60692 3.81119 -0.843625 5.44898C-0.958636 6.24416 -0.992176 6.40633 -0.998858 10.4678C-1.00143 11.8218 -0.998858 13.6033 -0.998858 15.9934C-0.998858 23.0868 -0.991147 25.161 -0.957093 25.5639C-0.839383 26.9815 -0.6172 27.8735 -0.146489 28.8491C0.75304 30.7166 2.47114 32.1186 4.49508 32.6417C5.19581 32.8221 5.96979 32.9216 6.96339 32.9686C7.3845 32.9869 11.6755 33 15.9691 33C20.2628 33 24.5565 32.9949 24.9669 32.9739C26.1176 32.9197 26.7857 32.83 27.5244 32.639C29.5614 32.1134 31.248 30.7323 32.1659 28.8387C32.6273 27.8864 32.8613 26.9606 32.9672 25.6171C32.9904 25.3241 33 20.6533 33 15.9889C33 11.3237 32.9895 6.66167 32.9666 6.36868C32.8593 5.00333 32.6253 4.08516 32.1488 3.11496C31.7579 2.32055 31.3238 1.72724 30.6936 1.1207C29.5689 0.0462804 28.1936 -0.607677 26.5545 -0.844124C25.7603 -0.959007 25.6023 -0.992932 21.5386 -1H16.0055Z" fill="url(#paint2_radial_3511_18013)"/>
<path d="M16.0055 -1C8.90817 -1 6.83244 -0.992675 6.42894 -0.959264C4.97247 -0.838085 4.06613 -0.608705 3.07884 -0.117048C2.31783 0.261011 1.71772 0.699081 1.12545 1.3132C0.0467813 2.43324 -0.60692 3.81119 -0.843625 5.44898C-0.958636 6.24416 -0.992176 6.40633 -0.998858 10.4678C-1.00143 11.8218 -0.998858 13.6033 -0.998858 15.9934C-0.998858 23.0868 -0.991147 25.161 -0.957093 25.5639C-0.839383 26.9815 -0.6172 27.8735 -0.146489 28.8491C0.75304 30.7166 2.47114 32.1186 4.49508 32.6417C5.19581 32.8221 5.96979 32.9216 6.96339 32.9686C7.3845 32.9869 11.6755 33 15.9691 33C20.2628 33 24.5565 32.9949 24.9669 32.9739C26.1176 32.9197 26.7857 32.83 27.5244 32.639C29.5614 32.1134 31.248 30.7323 32.1659 28.8387C32.6273 27.8864 32.8613 26.9606 32.9672 25.6171C32.9904 25.3241 33 20.6533 33 15.9889C33 11.3237 32.9895 6.66167 32.9666 6.36868C32.8593 5.00333 32.6253 4.08516 32.1488 3.11496C31.7579 2.32055 31.3238 1.72724 30.6936 1.1207C29.5689 0.0462804 28.1936 -0.607677 26.5545 -0.844124C25.7603 -0.959007 25.6023 -0.992932 21.5386 -1H16.0055Z" fill="url(#paint3_radial_3511_18013)"/>
<path d="M16.0055 -1C8.90817 -1 6.83244 -0.992675 6.42894 -0.959264C4.97247 -0.838085 4.06613 -0.608705 3.07884 -0.117048C2.31783 0.261011 1.71772 0.699081 1.12545 1.3132C0.0467813 2.43324 -0.60692 3.81119 -0.843625 5.44898C-0.958636 6.24416 -0.992176 6.40633 -0.998858 10.4678C-1.00143 11.8218 -0.998858 13.6033 -0.998858 15.9934C-0.998858 23.0868 -0.991147 25.161 -0.957093 25.5639C-0.839383 26.9815 -0.6172 27.8735 -0.146489 28.8491C0.75304 30.7166 2.47114 32.1186 4.49508 32.6417C5.19581 32.8221 5.96979 32.9216 6.96339 32.9686C7.3845 32.9869 11.6755 33 15.9691 33C20.2628 33 24.5565 32.9949 24.9669 32.9739C26.1176 32.9197 26.7857 32.83 27.5244 32.639C29.5614 32.1134 31.248 30.7323 32.1659 28.8387C32.6273 27.8864 32.8613 26.9606 32.9672 25.6171C32.9904 25.3241 33 20.6533 33 15.9889C33 11.3237 32.9895 6.66167 32.9666 6.36868C32.8593 5.00333 32.6253 4.08516 32.1488 3.11496C31.7579 2.32055 31.3238 1.72724 30.6936 1.1207C29.5689 0.0462804 28.1936 -0.607677 26.5545 -0.844124C25.7603 -0.959007 25.6023 -0.992932 21.5386 -1H16.0055Z" fill="url(#paint4_radial_3511_18013)"/>
</g>
<path d="M20.8626 6.50977H10.9609C8.22541 6.50977 6 8.73518 6 11.4707V20.5293C6 23.2648 8.22541 25.4902 10.9609 25.4902H20.8626C23.5982 25.4902 25.8236 23.2648 25.8236 20.5293V11.4707C25.8236 8.73518 23.5982 6.50977 20.8626 6.50977ZM7.75006 11.4707C7.75006 9.70046 9.19069 8.25983 10.9609 8.25983H20.8626C22.6329 8.25983 24.0735 9.70046 24.0735 11.4707V20.5293C24.0735 22.2996 22.6329 23.7402 20.8626 23.7402H10.9609C9.19069 23.7402 7.75006 22.2996 7.75006 20.5293V11.4707Z" fill="white"/>
<path d="M15.9114 20.6138C18.4552 20.6138 20.5259 18.5442 20.5259 15.9993C20.5259 13.4543 18.4563 11.3848 15.9114 11.3848C13.3665 11.3848 11.2969 13.4543 11.2969 15.9993C11.2969 18.5442 13.3665 20.6138 15.9114 20.6138ZM15.9114 13.1359C17.491 13.1359 18.7758 14.4207 18.7758 16.0004C18.7758 17.58 17.491 18.8648 15.9114 18.8648C14.3317 18.8648 13.0469 17.58 13.0469 16.0004C13.0469 14.4207 14.3317 13.1359 15.9114 13.1359Z" fill="white"/>
<path d="M20.9533 12.1302C21.6383 12.1302 22.1966 11.573 22.1966 10.8869C22.1966 10.2007 21.6394 9.64355 20.9533 9.64355C20.2672 9.64355 19.71 10.2007 19.71 10.8869C19.71 11.573 20.2672 12.1302 20.9533 12.1302Z" fill="white"/>
</g>
<defs>
<linearGradient id="paint0_linear_3511_18013" x1="4.67505" y1="27.3249" x2="27.3249" y2="4.67617" gradientUnits="userSpaceOnUse">
<stop stop-color="#FAAD4F"/>
<stop offset="0.35" stop-color="#DD2A7B"/>
<stop offset="0.62" stop-color="#9537B0"/>
<stop offset="1" stop-color="#515BD4"/>
</linearGradient>
<radialGradient id="paint1_radial_3511_18013" cx="0" cy="0" r="1" gradientUnits="userSpaceOnUse" gradientTransform="translate(31.9021 14.9362) rotate(164.25) scale(21.7241 15.6512)">
<stop stop-color="#FF005F"/>
<stop offset="1" stop-color="#FC01D8"/>
</radialGradient>
<radialGradient id="paint2_radial_3511_18013" cx="0" cy="0" r="1" gradientUnits="userSpaceOnUse" gradientTransform="translate(8.03097 35.6188) rotate(-90) scale(27.1395 28.7944)">
<stop stop-color="#FFCC00"/>
<stop offset="0.124161" stop-color="#FFCC00"/>
<stop offset="0.567196" stop-color="#FE4A05"/>
<stop offset="0.694203" stop-color="#FF0F3F"/>
<stop offset="1" stop-color="#FE0657" stop-opacity="0"/>
</radialGradient>
<radialGradient id="paint3_radial_3511_18013" cx="0" cy="0" r="1" gradientUnits="userSpaceOnUse" gradientTransform="translate(16.8591 32.5206) rotate(-59.8703) scale(11.2224 14.6103)">
<stop stop-color="#FFCC00"/>
<stop offset="1" stop-color="#FFCC00" stop-opacity="0"/>
</radialGradient>
<radialGradient id="paint4_radial_3511_18013" cx="0" cy="0" r="1" gradientUnits="userSpaceOnUse" gradientTransform="translate(3.61304 0.384523) rotate(164.274) scale(21.4831 7.31929)">
<stop stop-color="#780CFF"/>
<stop offset="1" stop-color="#820BFF" stop-opacity="0"/>
</radialGradient>
<clipPath id="clip0_3511_18013">
<rect width="32" height="32" fill="white"/>
</clipPath>
</defs>
</svg>
