<svg width="40" height="40" viewBox="0 0 40 40" fill="none" xmlns="http://www.w3.org/2000/svg">
<g id="-SOYdLKJpzZZzRQ6uteFfgD2EJITLZ9SIy2Lks2Lxx3QwMv2Fu974c5JCkxnPh5CHxFDXaV_m_DO2BYzidGOUf24EwSDSfB6yOu40KoP-5wSxTgnOicbpCcTC5s_jHJ84ST6fD6pmm2WUG9UlVvUpg 1" filter="url(#filter0_d_4486_4404)">
<path id="Vector" d="M20.0051 4C13.3253 4 11.3717 4.00689 10.9919 4.03834C9.62114 4.15239 8.76812 4.36828 7.8389 4.83101C7.12266 5.18683 6.55785 5.59913 6.00042 6.17713C4.9852 7.23128 4.36996 8.52818 4.14718 10.0696C4.03893 10.818 4.00736 10.9707 4.00108 14.7932C3.99866 16.0675 4.00108 17.7443 4.00108 19.9938C4.00108 26.6699 4.00833 28.6221 4.04038 29.0012C4.15117 30.3355 4.36028 31.175 4.8033 32.0932C5.64992 33.8509 7.26695 35.1704 9.17183 35.6628C9.83135 35.8326 10.5598 35.9262 11.4949 35.9704C11.8913 35.9876 15.9299 36 19.9709 36C24.012 36 28.0531 35.9951 28.4394 35.9754C29.5224 35.9244 30.1512 35.8399 30.8465 35.6602C32.7636 35.1656 34.351 33.8656 35.2149 32.0834C35.6492 31.1872 35.8695 30.3158 35.9691 29.0513C35.9909 28.7756 35.9999 24.3796 35.9999 19.9895C35.9999 15.5987 35.99 11.211 35.9685 10.9352C35.8675 9.65018 35.6473 8.78603 35.1988 7.8729C34.8309 7.12522 34.4223 6.56681 33.8292 5.99595C32.7707 4.98473 31.4762 4.36924 29.9336 4.14671C29.1862 4.03858 29.0374 4.00665 25.2128 4H20.0051Z" fill="url(#paint0_radial_4486_4404)"/>
<path id="Vector_2" d="M20.0051 4C13.3253 4 11.3717 4.00689 10.9919 4.03834C9.62114 4.15239 8.76812 4.36828 7.8389 4.83101C7.12266 5.18683 6.55785 5.59913 6.00042 6.17713C4.9852 7.23128 4.36996 8.52818 4.14718 10.0696C4.03893 10.818 4.00736 10.9707 4.00108 14.7932C3.99866 16.0675 4.00108 17.7443 4.00108 19.9938C4.00108 26.6699 4.00833 28.6221 4.04038 29.0012C4.15117 30.3355 4.36028 31.175 4.8033 32.0932C5.64992 33.8509 7.26695 35.1704 9.17183 35.6628C9.83135 35.8326 10.5598 35.9262 11.4949 35.9704C11.8913 35.9876 15.9299 36 19.9709 36C24.012 36 28.0531 35.9951 28.4394 35.9754C29.5224 35.9244 30.1512 35.8399 30.8465 35.6602C32.7636 35.1656 34.351 33.8656 35.2149 32.0834C35.6492 31.1872 35.8695 30.3158 35.9691 29.0513C35.9909 28.7756 35.9999 24.3796 35.9999 19.9895C35.9999 15.5987 35.99 11.211 35.9685 10.9352C35.8675 9.65018 35.6473 8.78603 35.1988 7.8729C34.8309 7.12522 34.4223 6.56681 33.8292 5.99595C32.7707 4.98473 31.4762 4.36924 29.9336 4.14671C29.1862 4.03858 29.0374 4.00665 25.2128 4H20.0051Z" fill="url(#paint1_radial_4486_4404)"/>
<path id="Vector_3" d="M20.0051 4C13.3253 4 11.3717 4.00689 10.9919 4.03834C9.62114 4.15239 8.76812 4.36828 7.8389 4.83101C7.12266 5.18683 6.55785 5.59913 6.00042 6.17713C4.9852 7.23128 4.36996 8.52818 4.14718 10.0696C4.03893 10.818 4.00736 10.9707 4.00108 14.7932C3.99866 16.0675 4.00108 17.7443 4.00108 19.9938C4.00108 26.6699 4.00833 28.6221 4.04038 29.0012C4.15117 30.3355 4.36028 31.175 4.8033 32.0932C5.64992 33.8509 7.26695 35.1704 9.17183 35.6628C9.83135 35.8326 10.5598 35.9262 11.4949 35.9704C11.8913 35.9876 15.9299 36 19.9709 36C24.012 36 28.0531 35.9951 28.4394 35.9754C29.5224 35.9244 30.1512 35.8399 30.8465 35.6602C32.7636 35.1656 34.351 33.8656 35.2149 32.0834C35.6492 31.1872 35.8695 30.3158 35.9691 29.0513C35.9909 28.7756 35.9999 24.3796 35.9999 19.9895C35.9999 15.5987 35.99 11.211 35.9685 10.9352C35.8675 9.65018 35.6473 8.78603 35.1988 7.8729C34.8309 7.12522 34.4223 6.56681 33.8292 5.99595C32.7707 4.98473 31.4762 4.36924 29.9336 4.14671C29.1862 4.03858 29.0374 4.00665 25.2128 4H20.0051Z" fill="url(#paint2_radial_4486_4404)"/>
<path id="Vector_4" d="M20.0051 4C13.3253 4 11.3717 4.00689 10.9919 4.03834C9.62114 4.15239 8.76812 4.36828 7.8389 4.83101C7.12266 5.18683 6.55785 5.59913 6.00042 6.17713C4.9852 7.23128 4.36996 8.52818 4.14718 10.0696C4.03893 10.818 4.00736 10.9707 4.00108 14.7932C3.99866 16.0675 4.00108 17.7443 4.00108 19.9938C4.00108 26.6699 4.00833 28.6221 4.04038 29.0012C4.15117 30.3355 4.36028 31.175 4.8033 32.0932C5.64992 33.8509 7.26695 35.1704 9.17183 35.6628C9.83135 35.8326 10.5598 35.9262 11.4949 35.9704C11.8913 35.9876 15.9299 36 19.9709 36C24.012 36 28.0531 35.9951 28.4394 35.9754C29.5224 35.9244 30.1512 35.8399 30.8465 35.6602C32.7636 35.1656 34.351 33.8656 35.2149 32.0834C35.6492 31.1872 35.8695 30.3158 35.9691 29.0513C35.9909 28.7756 35.9999 24.3796 35.9999 19.9895C35.9999 15.5987 35.99 11.211 35.9685 10.9352C35.8675 9.65018 35.6473 8.78603 35.1988 7.8729C34.8309 7.12522 34.4223 6.56681 33.8292 5.99595C32.7707 4.98473 31.4762 4.36924 29.9336 4.14671C29.1862 4.03858 29.0374 4.00665 25.2128 4H20.0051Z" fill="url(#paint3_radial_4486_4404)"/>
<path id="Vector_5" d="M20.0062 8.10889C16.7751 8.10889 16.3695 8.12304 15.1005 8.18073C13.8338 8.23866 12.9693 8.43907 12.2128 8.73308C11.4303 9.03665 10.7664 9.44291 10.1051 10.104C9.44326 10.7648 9.03676 11.4281 8.73186 12.2099C8.43688 12.966 8.23611 13.8302 8.17914 15.0954C8.1223 16.3635 8.10742 16.769 8.10742 19.9979C8.10742 23.2268 8.12194 23.6307 8.17938 24.8988C8.23756 26.1645 8.43821 27.0285 8.7321 27.7844C9.03628 28.5664 9.44277 29.2297 10.1043 29.8905C10.7654 30.5518 11.4292 30.959 12.2112 31.2627C12.9683 31.5567 13.8331 31.7571 15.0994 31.8151C16.3686 31.8727 16.7738 31.8869 20.0049 31.8869C23.2363 31.8869 23.6405 31.8727 24.9097 31.8151C26.1763 31.757 27.0419 31.5567 27.7989 31.2627C28.5812 30.9591 29.244 30.5518 29.9051 29.8905C30.5669 29.2297 30.9734 28.5664 31.2783 27.7847C31.5707 27.0285 31.7715 26.1643 31.831 24.8991C31.8881 23.631 31.9028 23.2268 31.9028 19.9979C31.9028 16.769 31.8881 16.3639 31.831 15.0956C31.7715 13.8299 31.5707 12.966 31.2783 12.2101C30.9734 11.4281 30.5669 10.7648 29.9051 10.104C29.2433 9.44267 28.5815 9.03641 27.7982 8.73308C27.0396 8.43907 26.1745 8.23866 24.908 8.18073C23.6389 8.12304 23.2348 8.10889 20.0026 8.10889H20.0062ZM18.939 10.2514C19.2558 10.2508 19.6092 10.2514 20.0063 10.2514C23.1831 10.2514 23.5596 10.2628 24.814 10.3198C25.974 10.3727 26.6036 10.5665 27.0231 10.7292C27.5782 10.9447 27.9742 11.2023 28.3904 11.6183C28.8068 12.0344 29.0645 12.4307 29.2806 12.9856C29.4435 13.4041 29.6375 14.0333 29.6904 15.1925C29.7474 16.4457 29.7598 16.8222 29.7598 19.9952C29.7598 23.168 29.7474 23.5445 29.6904 24.7978C29.6373 25.957 29.4435 26.5861 29.2806 27.0047C29.065 27.5595 28.8068 27.9546 28.3904 28.3704C27.9739 28.7865 27.5786 29.0441 27.0231 29.2596C26.6041 29.4231 25.974 29.6164 24.814 29.6694C23.5598 29.7262 23.1831 29.7387 20.0063 29.7387C16.8294 29.7387 16.4529 29.7263 15.1985 29.6694C14.0386 29.6158 13.4089 29.4222 12.9894 29.2594C12.4341 29.044 12.0375 28.7864 11.6211 28.3702C11.2046 27.9541 10.9468 27.5588 10.7307 27.0037C10.5678 26.5852 10.3738 25.956 10.321 24.7969C10.264 23.5435 10.2525 23.167 10.2525 19.9922C10.2525 16.8174 10.264 16.4428 10.321 15.1895C10.3741 14.0303 10.5678 13.4012 10.7307 12.9821C10.9464 12.4273 11.2046 12.031 11.6211 11.6148C12.0375 11.1988 12.4341 10.9412 12.9894 10.7252C13.4087 10.5618 14.0386 10.3685 15.1985 10.3152C16.2961 10.2657 16.7215 10.2508 18.939 10.2484V10.2514ZM26.3573 12.2255C25.5691 12.2255 24.9295 12.8637 24.9295 13.6517C24.9295 14.4393 25.5691 15.0783 26.3573 15.0783C27.1455 15.0783 27.785 14.4393 27.785 13.6517C27.785 12.864 27.1455 12.2249 26.3573 12.2249V12.2255ZM20.0062 13.8923C16.6319 13.8923 13.8961 16.6261 13.8961 19.9979C13.8961 23.3696 16.6319 26.1021 20.0062 26.1021C23.3805 26.1021 26.1151 23.3696 26.1151 19.9979C26.1151 16.6261 23.3802 13.8923 20.006 13.8923H20.0062ZM20.0062 16.0349C22.1964 16.0349 23.9721 17.8092 23.9721 19.9979C23.9721 22.1864 22.1964 23.9609 20.0062 23.9609C17.8158 23.9609 16.0402 22.1864 16.0402 19.9979C16.0402 17.809 17.8157 16.0349 20.0062 16.0349Z" fill="white"/>
</g>
<defs>
<filter id="filter0_d_4486_4404" x="0" y="0" width="40" height="40" filterUnits="userSpaceOnUse" color-interpolation-filters="sRGB">
<feFlood flood-opacity="0" result="BackgroundImageFix"/>
<feColorMatrix in="SourceAlpha" type="matrix" values="0 0 0 0 0 0 0 0 0 0 0 0 0 0 0 0 0 0 127 0" result="hardAlpha"/>
<feOffset/>
<feGaussianBlur stdDeviation="2"/>
<feComposite in2="hardAlpha" operator="out"/>
<feColorMatrix type="matrix" values="0 0 0 0 0 0 0 0 0 0 0 0 0 0 0 0 0 0 0.25 0"/>
<feBlend mode="normal" in2="BackgroundImageFix" result="effect1_dropShadow_4486_4404"/>
<feBlend mode="normal" in="SourceGraphic" in2="effect1_dropShadow_4486_4404" result="shape"/>
</filter>
<radialGradient id="paint0_radial_4486_4404" cx="0" cy="0" r="1" gradientUnits="userSpaceOnUse" gradientTransform="translate(34.9666 18.9988) rotate(164.25) scale(20.4462 14.7305)">
<stop stop-color="#FF005F"/>
<stop offset="1" stop-color="#FC01D8"/>
</radialGradient>
<radialGradient id="paint1_radial_4486_4404" cx="0" cy="0" r="1" gradientUnits="userSpaceOnUse" gradientTransform="translate(12.4997 38.4647) rotate(-90) scale(25.543 27.1006)">
<stop stop-color="#FFCC00"/>
<stop offset="0.124161" stop-color="#FFCC00"/>
<stop offset="0.567196" stop-color="#FE4A05"/>
<stop offset="0.694203" stop-color="#FF0F3F"/>
<stop offset="1" stop-color="#FE0657" stop-opacity="0"/>
</radialGradient>
<radialGradient id="paint2_radial_4486_4404" cx="0" cy="0" r="1" gradientUnits="userSpaceOnUse" gradientTransform="translate(20.8085 35.5488) rotate(-59.8703) scale(10.5623 13.7509)">
<stop stop-color="#FFCC00"/>
<stop offset="1" stop-color="#FFCC00" stop-opacity="0"/>
</radialGradient>
<radialGradient id="paint3_radial_4486_4404" cx="0" cy="0" r="1" gradientUnits="userSpaceOnUse" gradientTransform="translate(8.34168 5.30308) rotate(164.274) scale(20.2194 6.88873)">
<stop stop-color="#780CFF"/>
<stop offset="1" stop-color="#820BFF" stop-opacity="0"/>
</radialGradient>
</defs>
</svg>
