<svg width="40" height="40" viewBox="0 0 40 40" fill="none" xmlns="http://www.w3.org/2000/svg">
<g filter="url(#filter0_d_3349_19766)">
<path d="M20.0051 4.00024C13.3253 4.00024 11.3717 4.00714 10.9919 4.03858C9.62114 4.15263 8.76812 4.36852 7.8389 4.83126C7.12266 5.18708 6.55785 5.59938 6.00042 6.17737C4.9852 7.23153 4.36996 8.52842 4.14718 10.0699C4.03893 10.8183 4.00736 10.9709 4.00108 14.7935C3.99866 16.0678 4.00108 17.7445 4.00108 19.994C4.00108 26.6702 4.00833 28.6223 4.04038 29.0015C4.15117 30.3358 4.36028 31.1752 4.8033 32.0934C5.64992 33.8511 7.26695 35.1706 9.17183 35.663C9.83135 35.8328 10.5598 35.9264 11.4949 35.9707C11.8913 35.9879 15.9299 36.0002 19.9709 36.0002C24.012 36.0002 28.0531 35.9954 28.4394 35.9757C29.5224 35.9246 30.1512 35.8402 30.8465 35.6605C32.7636 35.1658 34.351 33.8659 35.2149 32.0836C35.6492 31.1874 35.8695 30.316 35.9691 29.0516C35.9909 28.7758 35.9999 24.3798 35.9999 19.9898C35.9999 15.599 35.99 11.2112 35.9685 10.9355C35.8675 9.65043 35.6473 8.78628 35.1988 7.87314C34.8309 7.12546 34.4223 6.56706 33.8292 5.9962C32.7707 4.98498 31.4762 4.36949 29.9336 4.14695C29.1862 4.03883 29.0374 4.0069 25.2128 4.00024H20.0051Z" fill="url(#paint0_radial_3349_19766)"/>
<path d="M20.0051 4.00024C13.3253 4.00024 11.3717 4.00714 10.9919 4.03858C9.62114 4.15263 8.76812 4.36852 7.8389 4.83126C7.12266 5.18708 6.55785 5.59938 6.00042 6.17737C4.9852 7.23153 4.36996 8.52842 4.14718 10.0699C4.03893 10.8183 4.00736 10.9709 4.00108 14.7935C3.99866 16.0678 4.00108 17.7445 4.00108 19.994C4.00108 26.6702 4.00833 28.6223 4.04038 29.0015C4.15117 30.3358 4.36028 31.1752 4.8033 32.0934C5.64992 33.8511 7.26695 35.1706 9.17183 35.663C9.83135 35.8328 10.5598 35.9264 11.4949 35.9707C11.8913 35.9879 15.9299 36.0002 19.9709 36.0002C24.012 36.0002 28.0531 35.9954 28.4394 35.9757C29.5224 35.9246 30.1512 35.8402 30.8465 35.6605C32.7636 35.1658 34.351 33.8659 35.2149 32.0836C35.6492 31.1874 35.8695 30.316 35.9691 29.0516C35.9909 28.7758 35.9999 24.3798 35.9999 19.9898C35.9999 15.599 35.99 11.2112 35.9685 10.9355C35.8675 9.65043 35.6473 8.78628 35.1988 7.87314C34.8309 7.12546 34.4223 6.56706 33.8292 5.9962C32.7707 4.98498 31.4762 4.36949 29.9336 4.14695C29.1862 4.03883 29.0374 4.0069 25.2128 4.00024H20.0051Z" fill="url(#paint1_radial_3349_19766)"/>
<path d="M20.0051 4.00024C13.3253 4.00024 11.3717 4.00714 10.9919 4.03858C9.62114 4.15263 8.76812 4.36852 7.8389 4.83126C7.12266 5.18708 6.55785 5.59938 6.00042 6.17737C4.9852 7.23153 4.36996 8.52842 4.14718 10.0699C4.03893 10.8183 4.00736 10.9709 4.00108 14.7935C3.99866 16.0678 4.00108 17.7445 4.00108 19.994C4.00108 26.6702 4.00833 28.6223 4.04038 29.0015C4.15117 30.3358 4.36028 31.1752 4.8033 32.0934C5.64992 33.8511 7.26695 35.1706 9.17183 35.663C9.83135 35.8328 10.5598 35.9264 11.4949 35.9707C11.8913 35.9879 15.9299 36.0002 19.9709 36.0002C24.012 36.0002 28.0531 35.9954 28.4394 35.9757C29.5224 35.9246 30.1512 35.8402 30.8465 35.6605C32.7636 35.1658 34.351 33.8659 35.2149 32.0836C35.6492 31.1874 35.8695 30.316 35.9691 29.0516C35.9909 28.7758 35.9999 24.3798 35.9999 19.9898C35.9999 15.599 35.99 11.2112 35.9685 10.9355C35.8675 9.65043 35.6473 8.78628 35.1988 7.87314C34.8309 7.12546 34.4223 6.56706 33.8292 5.9962C32.7707 4.98498 31.4762 4.36949 29.9336 4.14695C29.1862 4.03883 29.0374 4.0069 25.2128 4.00024H20.0051Z" fill="url(#paint2_radial_3349_19766)"/>
<path d="M20.0051 4.00024C13.3253 4.00024 11.3717 4.00714 10.9919 4.03858C9.62114 4.15263 8.76812 4.36852 7.8389 4.83126C7.12266 5.18708 6.55785 5.59938 6.00042 6.17737C4.9852 7.23153 4.36996 8.52842 4.14718 10.0699C4.03893 10.8183 4.00736 10.9709 4.00108 14.7935C3.99866 16.0678 4.00108 17.7445 4.00108 19.994C4.00108 26.6702 4.00833 28.6223 4.04038 29.0015C4.15117 30.3358 4.36028 31.1752 4.8033 32.0934C5.64992 33.8511 7.26695 35.1706 9.17183 35.663C9.83135 35.8328 10.5598 35.9264 11.4949 35.9707C11.8913 35.9879 15.9299 36.0002 19.9709 36.0002C24.012 36.0002 28.0531 35.9954 28.4394 35.9757C29.5224 35.9246 30.1512 35.8402 30.8465 35.6605C32.7636 35.1658 34.351 33.8659 35.2149 32.0836C35.6492 31.1874 35.8695 30.316 35.9691 29.0516C35.9909 28.7758 35.9999 24.3798 35.9999 19.9898C35.9999 15.599 35.99 11.2112 35.9685 10.9355C35.8675 9.65043 35.6473 8.78628 35.1988 7.87314C34.8309 7.12546 34.4223 6.56706 33.8292 5.9962C32.7707 4.98498 31.4762 4.36949 29.9336 4.14695C29.1862 4.03883 29.0374 4.0069 25.2128 4.00024H20.0051Z" fill="url(#paint3_radial_3349_19766)"/>
<path d="M20.0062 8.10913C16.7751 8.10913 16.3695 8.12328 15.1005 8.18097C13.8338 8.2389 12.9693 8.43931 12.2128 8.73333C11.4303 9.0369 10.7664 9.44315 10.1051 10.1042C9.44326 10.7651 9.03676 11.4283 8.73186 12.2101C8.43688 12.9663 8.23611 13.8304 8.17914 15.0956C8.1223 16.3637 8.10742 16.7693 8.10742 19.9981C8.10742 23.227 8.12194 23.631 8.17938 24.8991C8.23756 26.1648 8.43821 27.0288 8.7321 27.7847C9.03628 28.5666 9.44277 29.23 10.1043 29.8907C10.7654 30.552 11.4292 30.9592 12.2112 31.2629C12.9683 31.557 13.8331 31.7574 15.0994 31.8153C16.3686 31.873 16.7738 31.8871 20.0049 31.8871C23.2363 31.8871 23.6405 31.873 24.9097 31.8153C26.1763 31.7572 27.0419 31.557 27.7989 31.2629C28.5812 30.9594 29.244 30.552 29.9051 29.8907C30.5669 29.23 30.9734 28.5666 31.2783 27.7849C31.5707 27.0288 31.7715 26.1645 31.831 24.8993C31.8881 23.6312 31.9028 23.227 31.9028 19.9981C31.9028 16.7693 31.8881 16.3641 31.831 15.0959C31.7715 13.8302 31.5707 12.9663 31.2783 12.2104C30.9734 11.4283 30.5669 10.7651 29.9051 10.1042C29.2433 9.44291 28.5815 9.03666 27.7982 8.73333C27.0396 8.43931 26.1745 8.2389 24.908 8.18097C23.6389 8.12328 23.2348 8.10913 20.0026 8.10913H20.0062ZM18.939 10.2517C19.2558 10.2511 19.6092 10.2517 20.0063 10.2517C23.1831 10.2517 23.5596 10.263 24.814 10.32C25.974 10.373 26.6036 10.5667 27.0231 10.7294C27.5782 10.9449 27.9742 11.2025 28.3904 11.6186C28.8068 12.0346 29.0645 12.431 29.2806 12.9859C29.4435 13.4043 29.6375 14.0335 29.6904 15.1928C29.7474 16.446 29.7598 16.8225 29.7598 19.9955C29.7598 23.1682 29.7474 23.5447 29.6904 24.7981C29.6373 25.9572 29.4435 26.5864 29.2806 27.005C29.065 27.5597 28.8068 27.9549 28.3904 28.3707C27.9739 28.7867 27.5786 29.0443 27.0231 29.2599C26.6041 29.4234 25.974 29.6166 24.814 29.6696C23.5598 29.7265 23.1831 29.7389 20.0063 29.7389C16.8294 29.7389 16.4529 29.7266 15.1985 29.6696C14.0386 29.616 13.4089 29.4224 12.9894 29.2596C12.4341 29.0442 12.0375 28.7866 11.6211 28.3704C11.2046 27.9544 10.9468 27.559 10.7307 27.004C10.5678 26.5854 10.3738 25.9562 10.321 24.7971C10.264 23.5438 10.2525 23.1673 10.2525 19.9924C10.2525 16.8176 10.264 16.4431 10.321 15.1897C10.3741 14.0306 10.5678 13.4014 10.7307 12.9824C10.9464 12.4276 11.2046 12.0313 11.6211 11.6151C12.0375 11.199 12.4341 10.9414 12.9894 10.7254C13.4087 10.562 14.0386 10.3687 15.1985 10.3154C16.2961 10.2659 16.7215 10.2511 18.939 10.2486V10.2517ZM26.3573 12.2257C25.5691 12.2257 24.9295 12.864 24.9295 13.6519C24.9295 14.4395 25.5691 15.0786 26.3573 15.0786C27.1455 15.0786 27.785 14.4395 27.785 13.6519C27.785 12.8642 27.1455 12.2251 26.3573 12.2251V12.2257ZM20.0062 13.8926C16.6319 13.8926 13.8961 16.6263 13.8961 19.9981C13.8961 23.3698 16.6319 26.1023 20.0062 26.1023C23.3805 26.1023 26.1151 23.3698 26.1151 19.9981C26.1151 16.6263 23.3802 13.8926 20.006 13.8926H20.0062ZM20.0062 16.0351C22.1964 16.0351 23.9721 17.8094 23.9721 19.9981C23.9721 22.1866 22.1964 23.9611 20.0062 23.9611C17.8158 23.9611 16.0402 22.1866 16.0402 19.9981C16.0402 17.8093 17.8157 16.0351 20.0062 16.0351Z" fill="white"/>
</g>
<defs>
<filter id="filter0_d_3349_19766" x="0" y="0.000244141" width="40" height="40" filterUnits="userSpaceOnUse" color-interpolation-filters="sRGB">
<feFlood flood-opacity="0" result="BackgroundImageFix"/>
<feColorMatrix in="SourceAlpha" type="matrix" values="0 0 0 0 0 0 0 0 0 0 0 0 0 0 0 0 0 0 127 0" result="hardAlpha"/>
<feOffset/>
<feGaussianBlur stdDeviation="2"/>
<feComposite in2="hardAlpha" operator="out"/>
<feColorMatrix type="matrix" values="0 0 0 0 0 0 0 0 0 0 0 0 0 0 0 0 0 0 0.25 0"/>
<feBlend mode="normal" in2="BackgroundImageFix" result="effect1_dropShadow_3349_19766"/>
<feBlend mode="normal" in="SourceGraphic" in2="effect1_dropShadow_3349_19766" result="shape"/>
</filter>
<radialGradient id="paint0_radial_3349_19766" cx="0" cy="0" r="1" gradientUnits="userSpaceOnUse" gradientTransform="translate(34.9666 18.999) rotate(164.25) scale(20.4462 14.7305)">
<stop stop-color="#FF005F"/>
<stop offset="1" stop-color="#FC01D8"/>
</radialGradient>
<radialGradient id="paint1_radial_3349_19766" cx="0" cy="0" r="1" gradientUnits="userSpaceOnUse" gradientTransform="translate(12.4997 38.4649) rotate(-90) scale(25.543 27.1006)">
<stop stop-color="#FFCC00"/>
<stop offset="0.124161" stop-color="#FFCC00"/>
<stop offset="0.567196" stop-color="#FE4A05"/>
<stop offset="0.694203" stop-color="#FF0F3F"/>
<stop offset="1" stop-color="#FE0657" stop-opacity="0"/>
</radialGradient>
<radialGradient id="paint2_radial_3349_19766" cx="0" cy="0" r="1" gradientUnits="userSpaceOnUse" gradientTransform="translate(20.8085 35.549) rotate(-59.8703) scale(10.5623 13.7509)">
<stop stop-color="#FFCC00"/>
<stop offset="1" stop-color="#FFCC00" stop-opacity="0"/>
</radialGradient>
<radialGradient id="paint3_radial_3349_19766" cx="0" cy="0" r="1" gradientUnits="userSpaceOnUse" gradientTransform="translate(8.34168 5.30332) rotate(164.274) scale(20.2194 6.88873)">
<stop stop-color="#780CFF"/>
<stop offset="1" stop-color="#820BFF" stop-opacity="0"/>
</radialGradient>
</defs>
</svg>
