<svg width="32" height="32" viewBox="0 0 32 32" fill="none" xmlns="http://www.w3.org/2000/svg">
<path d="M16.0051 0C9.32532 0 7.3717 0.00689379 6.99193 0.0383395C5.62114 0.15239 4.76812 0.368277 3.8389 0.831012C3.12266 1.18683 2.55785 1.59913 2.00042 2.17713C0.985204 3.23128 0.369957 4.52818 0.147177 6.06962C0.0389308 6.81803 0.0073642 6.97066 0.00107507 10.7932C-0.00134383 12.0675 0.00107507 13.7443 0.00107507 15.9938C0.00107507 22.6699 0.00833232 24.6221 0.0403827 25.0012C0.151168 26.3355 0.360282 27.175 0.803303 28.0932C1.64992 29.8509 3.26695 31.1704 5.17183 31.6628C5.83135 31.8326 6.55979 31.9262 7.49494 31.9704C7.89128 31.9876 11.9299 32 15.9709 32C20.012 32 24.0531 31.9951 24.4394 31.9754C25.5224 31.9244 26.1512 31.8399 26.8465 31.6602C28.7636 31.1656 30.351 29.8656 31.2149 28.0834C31.6492 27.1872 31.8695 26.3158 31.9691 25.0513C31.9909 24.7756 31.9999 20.3796 31.9999 15.9895C31.9999 11.5987 31.99 7.21098 31.9685 6.93522C31.8675 5.65018 31.6473 4.78603 31.1988 3.8729C30.8309 3.12522 30.4223 2.56681 29.8292 1.99595C28.7707 0.984733 27.4762 0.369245 25.9336 0.146706C25.1862 0.0385816 25.0374 0.00665197 21.2128 0H16.0051Z" fill="#007EBB"/>
<path fill-rule="evenodd" clip-rule="evenodd" d="M27.1111 27.1111H22.3625V19.0232C22.3625 16.8057 21.5199 15.5665 19.7648 15.5665C17.8554 15.5665 16.8578 16.856 16.8578 19.0232V27.1111H12.2815V11.7037H16.8578V13.7791C16.8578 13.7791 18.2338 11.233 21.5034 11.233C24.7714 11.233 27.1111 13.2287 27.1111 17.3561V27.1111ZM6.82193 9.68623C5.26314 9.68623 4 8.41318 4 6.84311C4 5.27305 5.26314 4 6.82193 4C8.38073 4 9.64311 5.27305 9.64311 6.84311C9.64311 8.41318 8.38073 9.68623 6.82193 9.68623ZM4.45891 27.1111H9.23084V11.7037H4.45891V27.1111Z" fill="white"/>
</svg>
