<svg width="32" height="32" viewBox="0 0 32 32" fill="none" xmlns="http://www.w3.org/2000/svg">
<path d="M16.0051 0.000244141C9.32532 0.000244141 7.3717 0.00713793 6.99193 0.0385836C5.62114 0.152635 4.76812 0.368521 3.8389 0.831257C3.12266 1.18708 2.55785 1.59938 2.00042 2.17737C0.985204 3.23153 0.369957 4.52842 0.147177 6.06986C0.0389308 6.81827 0.0073642 6.9709 0.00107507 10.7935C-0.00134383 12.0678 0.00107507 13.7445 0.00107507 15.994C0.00107507 22.6702 0.00833232 24.6223 0.0403827 25.0015C0.151168 26.3358 0.360282 27.1752 0.803303 28.0934C1.64992 29.8511 3.26695 31.1706 5.17183 31.663C5.83135 31.8328 6.55979 31.9264 7.49494 31.9707C7.89128 31.9879 11.9299 32.0002 15.9709 32.0002C20.012 32.0002 24.0531 31.9954 24.4394 31.9757C25.5224 31.9246 26.1512 31.8402 26.8465 31.6605C28.7636 31.1658 30.351 29.8659 31.2149 28.0836C31.6492 27.1874 31.8695 26.316 31.9691 25.0516C31.9909 24.7758 31.9999 20.3798 31.9999 15.9898C31.9999 11.599 31.99 7.21122 31.9685 6.93547C31.8675 5.65043 31.6473 4.78628 31.1988 3.87314C30.8309 3.12546 30.4223 2.56706 29.8292 1.9962C28.7707 0.984977 27.4762 0.369489 25.9336 0.14695C25.1862 0.0388257 25.0374 0.00689611 21.2128 0.000244141H16.0051Z" fill="black"/>
<path d="M17.4093 15.9452C17.3942 14.3587 16.73 12.8426 15.5619 11.7285C14.3938 10.6144 12.817 9.99303 11.1763 10.0003C9.53566 10.0076 7.96476 10.6429 6.80729 11.7673C5.64982 12.8918 5 14.4137 5 16.0002C5 17.5868 5.64982 19.1087 6.80729 20.2331C7.96476 21.3576 9.53566 21.9929 11.1763 22.0002C12.817 22.0075 14.3938 21.3861 15.5619 20.272C16.73 19.1579 17.3942 17.6418 17.4093 16.0553M18.0109 16.0553C18.0188 17.5498 18.351 18.9777 18.9346 20.0268C19.5183 21.0758 20.3059 21.6607 21.1253 21.6534C21.9448 21.6461 22.7293 21.0473 23.3073 19.9879C23.8853 18.9285 24.2098 17.4948 24.2098 16.0002C24.2098 14.5057 23.8853 13.0719 23.3073 12.0126C22.7293 10.9532 21.9448 10.3544 21.1253 10.3471C20.3059 10.3398 19.5183 10.9247 18.9346 11.9737C18.351 13.0228 18.0188 14.4507 18.0109 15.9452M24.8229 15.9452C24.8261 14.6069 24.9429 13.3288 25.148 12.3902C25.3531 11.4516 25.6297 10.9288 25.9174 10.9361C26.205 10.9434 26.4804 11.4801 26.6833 12.429C26.8861 13.378 27 14.6619 27 16.0002C27 17.3386 26.8861 18.6225 26.6833 19.5714C26.4804 20.5204 26.205 21.0571 25.9174 21.0644C25.6297 21.0717 25.3531 20.5489 25.148 19.6103C24.9429 18.6717 24.8261 17.3936 24.8229 16.0553" fill="white"/>
</svg>
