<svg width="32" height="32" viewBox="0 0 32 32" fill="none" xmlns="http://www.w3.org/2000/svg">
<g clip-path="url(#clip0_3511_18036)">
<rect width="32" height="32" rx="6" fill="#F0F0F0"/>
<circle cx="16" cy="16" r="8.35" fill="#F2EFFA" stroke="#131313" stroke-width="1.3"/>
<path d="M19.85 16C19.85 18.4063 19.361 20.5526 18.6006 22.0733C17.8208 23.6329 16.8638 24.35 16 24.35C15.1362 24.35 14.1792 23.6329 13.3994 22.0733C12.639 20.5526 12.15 18.4063 12.15 16C12.15 13.5937 12.639 11.4474 13.3994 9.92673C14.1792 8.36715 15.1362 7.65 16 7.65C16.8638 7.65 17.8208 8.36715 18.6006 9.92673C19.361 11.4474 19.85 13.5937 19.85 16Z" fill="#F2EFFA" stroke="#131313" stroke-width="1.3"/>
<path d="M9 20.8441C10.3307 19.7371 12.7044 19 15.4111 19C18.243 19 20.7103 19.8068 22 21" stroke="#131313" stroke-width="1.3"/>
<path d="M9 11C10.3491 12.2006 12.7557 13 15.5 13C18.2443 13 20.6509 12.2006 22 11" stroke="#131313" stroke-width="1.3"/>
</g>
<defs>
<clipPath id="clip0_3511_18036">
<rect width="32" height="32" fill="white"/>
</clipPath>
</defs>
</svg>

