<svg width="40" height="40" viewBox="0 0 40 40" fill="none" xmlns="http://www.w3.org/2000/svg">
<g id="ph:link-bold" filter="url(#filter0_d_3323_17487)">
<rect x="4" y="4" width="32" height="32" rx="7" fill="#0E0D0D" fill-opacity="0.1" shape-rendering="crispEdges"/>
<path id="Vector" d="M20.8383 25.9527C20.9502 26.0641 21.0389 26.1966 21.0995 26.3424C21.1601 26.4883 21.1912 26.6446 21.1912 26.8025C21.1912 26.9605 21.1601 27.1168 21.0995 27.2627C21.0389 27.4085 20.9502 27.541 20.8383 27.6524L20.2444 28.2463C19.119 29.3717 17.5926 30.004 16.001 30.004C14.4095 30.004 12.8831 29.3717 11.7577 28.2463C10.6323 27.1209 10 25.5945 10 24.003C10 22.4114 10.6323 20.885 11.7577 19.7596L14.1693 17.3489C15.2506 16.2649 16.7055 15.6354 18.2359 15.5893C19.7664 15.5432 21.2565 16.084 22.4011 17.101C22.5193 17.206 22.6156 17.3333 22.6846 17.4756C22.7536 17.6178 22.7939 17.7723 22.8031 17.9301C22.8124 18.088 22.7905 18.2461 22.7387 18.3955C22.6869 18.5448 22.6061 18.6825 22.5011 18.8007C22.3961 18.9189 22.2688 19.0152 22.1265 19.0842C21.9842 19.1532 21.8298 19.1935 21.6719 19.2027C21.5141 19.212 21.356 19.1901 21.2066 19.1383C21.0572 19.0865 20.9195 19.0057 20.8013 18.9007C20.115 18.2911 19.2216 17.9668 18.304 17.9941C17.3864 18.0215 16.514 18.3983 15.8651 19.0477L13.4554 21.4553C12.7803 22.1305 12.401 23.0462 12.401 24.001C12.401 24.9558 12.7803 25.8714 13.4554 26.5466C14.1306 27.2217 15.0463 27.601 16.001 27.601C16.9558 27.601 17.8715 27.2217 18.5467 26.5466L19.1406 25.9527C19.252 25.8411 19.3843 25.7526 19.53 25.6922C19.6757 25.6319 19.8318 25.6008 19.9895 25.6008C20.1471 25.6008 20.3033 25.6319 20.4489 25.6922C20.5946 25.7526 20.7269 25.8411 20.8383 25.9527ZM28.2453 11.7547C27.1189 10.6311 25.5929 10 24.0019 10C22.4109 10 20.8848 10.6311 19.7585 11.7547L19.1646 12.3487C18.9392 12.5741 18.8126 12.8798 18.8126 13.1985C18.8126 13.5173 18.9392 13.823 19.1646 14.0484C19.39 14.2738 19.6957 14.4004 20.0145 14.4004C20.3332 14.4004 20.6389 14.2738 20.8643 14.0484L21.4583 13.4545C22.1334 12.7794 23.0491 12.4001 24.0039 12.4001C24.9587 12.4001 25.8744 12.7794 26.5495 13.4545C27.2247 14.1296 27.6039 15.0453 27.6039 16.0001C27.6039 16.9549 27.2247 17.8706 26.5495 18.5458L24.1389 20.9574C23.4894 21.6065 22.6164 21.9828 21.6986 22.0094C20.7808 22.036 19.8875 21.7108 19.2016 21.1004C19.0834 20.9953 18.9457 20.9146 18.7963 20.8628C18.647 20.811 18.4888 20.7891 18.331 20.7983C18.1732 20.8076 18.0187 20.8479 17.8764 20.9169C17.7342 20.9859 17.6069 21.0822 17.5018 21.2004C17.3968 21.3185 17.316 21.4562 17.2642 21.6056C17.2124 21.755 17.1905 21.9131 17.1998 22.0709C17.2091 22.2288 17.2494 22.3832 17.3183 22.5255C17.3873 22.6678 17.4836 22.7951 17.6018 22.9001C18.7456 23.9168 20.2348 24.458 21.7645 24.4128C23.2942 24.3677 24.7488 23.7396 25.8306 22.6572L28.2423 20.2465C29.3673 19.1204 29.9994 17.594 30 16.0022C30.0006 14.4105 29.3695 12.8836 28.2453 11.7567V11.7547Z" fill="#545454"/>
</g>
<defs>
<filter id="filter0_d_3323_17487" x="0" y="0" width="40" height="40" filterUnits="userSpaceOnUse" color-interpolation-filters="sRGB">
<feFlood flood-opacity="0" result="BackgroundImageFix"/>
<feColorMatrix in="SourceAlpha" type="matrix" values="0 0 0 0 0 0 0 0 0 0 0 0 0 0 0 0 0 0 127 0" result="hardAlpha"/>
<feOffset/>
<feGaussianBlur stdDeviation="2"/>
<feComposite in2="hardAlpha" operator="out"/>
<feColorMatrix type="matrix" values="0 0 0 0 0 0 0 0 0 0 0 0 0 0 0 0 0 0 0.25 0"/>
<feBlend mode="normal" in2="BackgroundImageFix" result="effect1_dropShadow_3323_17487"/>
<feBlend mode="normal" in="SourceGraphic" in2="effect1_dropShadow_3323_17487" result="shape"/>
</filter>
</defs>
</svg>
